<svg width="35" height="35" viewBox="0 0 35 35" fill="none" xmlns="http://www.w3.org/2000/svg">
<path d="M7.25935 25.8493L7.25933 25.8493L7.25741 25.8512C7.15394 25.9546 7.05444 26.0283 6.94571 26.0766C6.83742 26.1247 6.71489 26.15 6.5625 26.15C6.41011 26.15 6.28758 26.1247 6.17929 26.0766C6.07056 26.0283 5.97106 25.9546 5.86759 25.8512C5.46914 25.4527 5.46914 24.8598 5.86759 24.4613C7.52295 22.806 8.51887 20.8163 8.74013 18.6037L8.75112 18.4937H8.64062H4.375C4.0696 18.4937 3.82287 18.3924 3.65274 18.2223C3.48261 18.0521 3.38125 17.8054 3.38125 17.5C3.38125 17.1946 3.48261 16.9479 3.65274 16.7777C3.82287 16.6076 4.0696 16.5063 4.375 16.5063H8.64062H8.75112L8.74013 16.3963C8.51887 14.1837 7.52295 12.194 5.86759 10.5387C5.46914 10.1402 5.46914 9.54728 5.86759 9.14884C6.26603 8.75039 6.85897 8.75039 7.25741 9.14884L7.25739 9.14886L7.25935 9.15072C9.31906 11.102 10.5116 13.7038 10.7284 16.4142L10.7358 16.5063H10.8281H16.4062H16.5063V16.4062V4.375C16.5063 4.0696 16.6076 3.82287 16.7777 3.65274C16.9479 3.48261 17.1946 3.38125 17.5 3.38125C17.8054 3.38125 18.0521 3.48261 18.2223 3.65274C18.3924 3.82287 18.4937 4.0696 18.4937 4.375V16.4062V16.5063H18.5938H24.0625H24.1548L24.1622 16.4142C24.3788 13.7063 25.6791 11.1038 27.7407 9.15072L27.7407 9.15075L27.7426 9.14884C28.141 8.75039 28.734 8.75039 29.1324 9.14884C29.5305 9.54689 29.5309 10.139 29.1336 10.5375C27.4753 12.0859 26.4809 14.1863 26.2599 16.3963L26.2489 16.5063H26.3594H30.625C30.9304 16.5063 31.1771 16.6076 31.3473 16.7777C31.5174 16.9479 31.6187 17.1946 31.6187 17.5C31.6187 17.8054 31.5174 18.0521 31.3473 18.2223C31.1771 18.3924 30.9304 18.4937 30.625 18.4937H26.3594H26.2489L26.2599 18.6037C26.4811 20.8163 27.477 22.806 29.1324 24.4613C29.5309 24.8598 29.5309 25.4527 29.1324 25.8512C29.0289 25.9546 28.9294 26.0283 28.8207 26.0766C28.7124 26.1247 28.5899 26.15 28.4375 26.15C28.2435 26.15 27.9414 26.0499 27.7426 25.8512L27.7407 25.8493C25.681 23.8981 24.4874 21.2953 24.1618 18.5818L24.1512 18.4937H24.0625H18.5938H18.4937V18.5938V30.625C18.4937 30.9304 18.3924 31.1771 18.2223 31.3473C18.0521 31.5174 17.8054 31.6187 17.5 31.6187C17.1946 31.6187 16.9479 31.5174 16.7777 31.3473C16.6076 31.1771 16.5063 30.9304 16.5063 30.625V18.5938V18.4937H16.4062H10.8281H10.7358L10.7284 18.5858C10.5116 21.2962 9.31906 23.898 7.25935 25.8493ZM0.1 17.5C0.1 7.93023 7.93023 0.1 17.5 0.1C27.0698 0.1 34.9 7.93023 34.9 17.5C34.9 27.0698 27.0698 34.9 17.5 34.9C7.93023 34.9 0.1 27.0698 0.1 17.5ZM2.0875 17.5C2.0875 25.9771 9.0229 32.9125 17.5 32.9125C25.9771 32.9125 32.9125 25.9771 32.9125 17.5C32.9125 9.0229 25.9771 2.0875 17.5 2.0875C9.0229 2.0875 2.0875 9.0229 2.0875 17.5Z" fill="#203260" stroke="#F9F9F9" stroke-width="0.2"/>
</svg>
