<svg width="35" height="38" viewBox="0 0 35 38" fill="none" xmlns="http://www.w3.org/2000/svg">
<path d="M23.8666 17.8271V12.8096C23.8666 12.3078 23.5374 11.9733 23.0437 11.9733H11.5218C11.028 11.9733 10.6988 12.3078 10.6988 12.8096V17.8271C10.6988 18.3289 10.3696 18.6634 9.87585 18.6634C9.38206 18.6634 9.05287 18.3289 9.05287 17.8271V12.8096C9.05287 11.3879 10.1227 10.3008 11.5218 10.3008H23.0437C24.4427 10.3008 25.5126 11.3879 25.5126 12.8096V17.8271C25.5126 18.3289 25.1834 18.6634 24.6896 18.6634C24.1958 18.6634 23.8666 18.3289 23.8666 17.8271ZM7.40689 20.3359H9.87585H24.6896H27.1586C27.6524 20.3359 27.9816 20.6704 27.9816 21.1722C27.9816 21.6739 27.6524 22.0084 27.1586 22.0084H25.4303L23.8666 36.3085C23.7843 36.7266 23.4552 37.0612 23.0437 37.0612H22.9614C22.5499 36.9775 22.2207 36.5594 22.2207 36.1413V35.8068L20.5747 34.0506L17.8588 36.8103C17.6942 36.9775 17.5296 37.0612 17.2827 37.0612C17.0358 37.0612 16.8712 36.9775 16.7066 36.8103L13.9908 34.0506L12.2625 35.8068V36.1413C12.3448 36.5594 12.0156 36.9775 11.5218 37.0612C11.028 37.1448 10.6988 36.8103 10.6165 36.3085L9.13516 22.0084H7.40689C6.9131 22.0084 6.5839 21.6739 6.5839 21.1722C6.5839 20.6704 6.9131 20.3359 7.40689 20.3359ZM23.5374 24.4336L21.7269 26.1897L23.126 27.6114L23.5374 24.4336ZM20.5747 27.3605L18.4349 29.5348L20.5747 31.7091L22.7145 29.5348L20.5747 27.3605ZM19.4225 26.1897L17.2827 24.0155L15.143 26.1897L17.2827 28.364L19.4225 26.1897ZM13.9908 27.3605L11.851 29.5348L13.9908 31.7091L16.1306 29.5348L13.9908 27.3605ZM12.8386 26.1897L11.028 24.35L11.3572 27.6114L12.8386 26.1897ZM12.8386 32.8798L11.851 31.8763L12.0156 33.6325L12.8386 32.8798ZM19.4225 32.8798L17.2827 30.7056L15.143 32.8798L17.2827 35.0541L19.4225 32.8798ZM22.4676 33.6325L22.6322 31.8763L21.7269 32.8798L22.4676 33.6325ZM23.7843 22.0084H19.2579L18.4349 22.8447L20.5747 25.019L23.2906 22.2593C23.4552 22.1757 23.6197 22.0921 23.7843 22.0084ZM10.7811 22.0084C10.9457 22.0084 11.1103 22.0921 11.2749 22.2593L13.9908 25.019L16.1306 22.8447L15.3076 22.0084H10.7811ZM17.2827 0.265625C10.8634 0.265625 4.77333 3.02529 0.246896 8.04286C0.0822988 8.21011 0 8.46099 0 8.62824V25.3535C0 25.7716 0.246896 26.1061 0.65839 26.1897L7.24229 27.8623C7.65379 27.9459 8.14758 27.695 8.22988 27.2769C8.31218 26.8588 8.06528 26.357 7.65379 26.2734L1.64598 24.6845V8.96275C5.84321 4.44693 11.4395 1.93815 17.2827 1.93815C23.126 1.93815 28.7223 4.44693 32.9195 8.96275V24.6845L26.994 26.1897C26.5825 26.2734 26.2533 26.7751 26.4179 27.1933C26.5002 27.6114 26.8294 27.8623 27.2409 27.8623C27.3232 27.8623 27.4055 27.8623 27.4055 27.8623L33.9894 26.1897C34.3186 26.1061 34.6478 25.7716 34.6478 25.3535V8.62824C34.6478 8.37737 34.5655 8.21011 34.4009 8.04286C29.7922 3.02529 23.702 0.265625 17.2827 0.265625Z" fill="#B6BECB"/>
</svg>
