<svg width="25" height="33" viewBox="0 0 25 33" fill="none" xmlns="http://www.w3.org/2000/svg">
<g clip-path="url(#clip0)">
<path d="M22.4884 7.48701L22.4885 7.48588C22.7161 5.56533 22.1094 3.64428 20.8195 2.23999C19.5293 0.76207 17.6329 -0.05 15.6618 -0.05H6.77624C4.80509 -0.05 2.90869 0.762066 1.6185 2.23997C0.328724 3.6441 -0.278441 5.56555 0.0249477 7.48721C0.0249786 7.48741 0.0250095 7.48761 0.0250405 7.4878L1.9074 21.5666L1.90742 21.5668C2.06165 22.6933 3.06326 23.5167 4.21599 23.5167H18.8997C21.7103 23.5167 24.1408 21.4457 24.5966 18.7082L24.5967 18.7082L24.5969 18.7064L25.0487 15.1864L25.0488 15.1864L25.0489 15.1843C25.1252 14.2933 24.8967 13.3986 24.283 12.7263C23.6711 12.0559 22.8294 11.6833 21.9118 11.6833H21.8941L22.4884 7.48701ZM21.0571 17.6834L21.0573 17.6834L21.0577 17.68L21.6543 13.25H21.9871C22.4288 13.25 22.8643 13.3933 23.1533 13.7451C23.4474 14.1031 23.5915 14.5289 23.5191 14.9516L23.5188 14.9536L23.0672 18.4725C23.0671 18.4727 23.0671 18.4729 23.0671 18.4731C22.7694 20.4279 20.9837 21.95 18.975 21.95H4.2913C3.9433 21.95 3.65954 21.6786 3.58758 21.3315L1.62998 7.25311L1.62987 7.25239C1.40629 5.80085 1.85335 4.34907 2.82262 3.25991C3.79171 2.17095 5.28396 1.51667 6.77624 1.51667H15.6618C17.1541 1.51667 18.644 2.17073 19.537 3.40268L19.5366 3.40295L19.5413 3.40793C20.5848 4.49667 21.0317 5.94772 20.8081 7.39905L20.808 7.40003L20.1303 12.46L19.4526 17.52L19.4521 17.52V17.5267C19.4521 17.9178 19.7708 18.3046 20.1703 18.3824L20.1701 18.3833H20.1798H20.2551C20.6596 18.3833 20.978 18.0689 21.0571 17.6834ZM8.77448 26.2158L10.0931 27.5L8.77448 28.7842C8.45312 29.0971 8.45312 29.5695 8.77448 29.8825C9.0951 30.1947 9.57785 30.1947 9.89847 29.8825L11.219 28.5965L12.5395 29.8825C12.7002 30.039 12.939 30.1167 13.1015 30.1167C13.2641 30.1167 13.5028 30.039 13.6635 29.8825C13.9849 29.5695 13.9849 29.0971 13.6635 28.7842L12.3449 27.5L13.6635 26.2158C13.9849 25.9029 13.9849 25.4305 13.6635 25.1175C13.3429 24.8053 12.8602 24.8053 12.5395 25.1175L11.219 26.4035L9.89847 25.1175C9.57785 24.8053 9.0951 24.8053 8.77448 25.1175C8.45312 25.4305 8.45312 25.9029 8.77448 26.2158ZM4.06539 24.8833C3.82852 24.8833 3.62707 24.9604 3.48457 25.0992C3.34196 25.2381 3.26238 25.4349 3.26238 25.6667V30.0667C3.26238 30.581 3.52706 31.0247 3.97572 31.3987C4.42377 31.7722 5.05873 32.0795 5.81012 32.3234C7.31331 32.8114 9.29557 33.05 11.219 33.05C13.1424 33.05 15.1247 32.8114 16.6279 32.3234C17.3793 32.0795 18.0142 31.7722 18.4623 31.3987C18.9109 31.0247 19.1756 30.581 19.1756 30.0667V25.6667C19.1756 25.4349 19.096 25.2381 18.9534 25.0992C18.8109 24.9604 18.6095 24.8833 18.3726 24.8833C18.1357 24.8833 17.9343 24.9604 17.7918 25.0992C17.6492 25.2381 17.5696 25.4349 17.5696 25.6667V30.062C17.5616 30.0999 17.5283 30.1532 17.456 30.2191C17.383 30.2857 17.2763 30.3598 17.1354 30.4377C16.8537 30.5935 16.441 30.7618 15.9021 30.917C14.8247 31.2272 13.2481 31.4833 11.219 31.4833C9.18989 31.4833 7.61329 31.2272 6.53593 30.917C5.99706 30.7618 5.5843 30.5935 5.30265 30.4377C5.1617 30.3598 5.05501 30.2857 4.98197 30.2191C4.90976 30.1532 4.8764 30.0999 4.8684 30.062V25.6667C4.8684 25.4349 4.78882 25.2381 4.64621 25.0992C4.50372 24.9604 4.30227 24.8833 4.06539 24.8833Z" fill="#203260" stroke="black" stroke-width="0.1"/>
</g>
<defs>
<clipPath id="clip0">
<rect width="25" height="33" fill="white"/>
</clipPath>
</defs>
</svg>
