<svg width="34" height="30" viewBox="0 0 34 30" fill="none" xmlns="http://www.w3.org/2000/svg">
<g clip-path="url(#clip0)">
<path d="M32.3897 11.4859L32.3902 11.4868C34.3153 14.9757 33.7662 17.5807 32.9977 19.1375C32.3002 20.5495 31.2899 21.3658 30.8956 21.6499L28.1211 22.6405C26.6649 22.9849 24.6271 23.2714 21.8734 23.2714C19.7572 23.2714 17.8587 24.2835 16.3737 25.4455C14.9306 26.5747 13.8493 27.8678 13.2996 28.5904L10.6006 29.7H4.86214L2.00493 29.1984C0.520154 27.9037 0.259429 26.5669 0.299917 25.6519C0.369862 24.256 1.17127 23.0318 2.03637 22.1081C2.89464 21.1917 3.78176 20.6071 3.9657 20.4867C4.04689 20.4351 4.14251 20.4003 4.27549 20.3549C4.27954 20.3538 4.28344 20.3528 4.28696 20.3518C4.2986 20.3485 4.3132 20.3442 4.33022 20.339C4.36455 20.3284 4.41238 20.3129 4.47249 20.2921C4.59284 20.2506 4.76416 20.1875 4.97724 20.0994C5.40338 19.9233 5.9979 19.6471 6.68671 19.2443C8.06397 18.4389 9.82222 17.1248 11.3632 15.0892L11.3633 15.0891C12.9596 12.9784 14.1014 9.54712 14.8448 6.67007C15.2183 5.22447 15.4942 3.90592 15.6778 2.94306C15.7696 2.4615 15.8384 2.0686 15.8847 1.79289C15.9078 1.65503 15.9254 1.54647 15.9374 1.47078L15.9513 1.38245L15.9551 1.35788C15.9561 1.35104 15.9564 1.34912 15.9564 1.34929L15.9565 1.3493L15.9574 1.34254C16.0418 0.738544 16.5458 0.3 17.1425 0.3H29.5987C29.9771 0.3 30.3219 0.479687 30.5523 0.802004C30.781 1.12189 30.843 1.5309 30.7331 1.90533L30.733 1.9053L30.7311 1.91247L30.73 1.91659C30.6629 2.16753 29.5549 6.30941 32.3897 11.4859ZM29.5107 19.6294L29.5284 19.6203L29.5448 19.609C29.8295 19.4121 30.6158 18.7702 31.0317 17.6199C31.4526 16.4559 31.4763 14.8206 30.3112 12.683L30.3107 12.682C28.1147 8.68903 27.9551 5.15426 28.131 3.08665L28.1587 2.76122H27.8321H18.4001H18.1493L18.1048 3.00803C17.8441 4.455 17.3339 6.92562 16.5359 9.50443C15.736 12.0891 14.6554 14.7543 13.2649 16.6102C10.0811 20.8143 6.14653 22.3482 5.14726 22.674L5.10534 22.6876L5.06912 22.7128C4.65636 22.9994 4.09105 23.4663 3.61967 23.9981C3.16177 24.5146 2.7396 25.1503 2.71004 25.7722C2.67172 26.2726 2.96038 26.7366 3.38291 27.1526L3.47049 27.2388H3.59338H11.124H11.2719L11.362 27.1214C12.0348 26.2446 13.3631 24.661 15.1797 23.2987C16.9973 21.9356 19.2818 20.8102 21.8734 20.8102C25.5268 20.8102 27.7755 20.2546 28.7972 19.9064C29.158 19.7835 29.4002 19.6859 29.5107 19.6294Z" fill="#203260" stroke="#F9F9F9" stroke-width="0.6"/>
</g>
<defs>
<clipPath id="clip0">
<rect width="34" height="30" fill="white"/>
</clipPath>
</defs>
</svg>
