<svg width="41" height="35" viewBox="0 0 41 35" fill="none" xmlns="http://www.w3.org/2000/svg">
<path d="M39.9075 11.203L29.8336 0.849284C29.7561 0.689996 29.5236 0.610352 29.3686 0.610352H10.7707C10.5382 0.610352 10.3832 0.689996 10.2282 0.849284L0.154349 11.203C-0.155616 11.5216 -0.155616 11.9994 0.154349 12.318L4.80384 17.0967C5.1138 17.4152 5.57875 17.4152 5.88872 17.0967L10.3057 12.557L11.9331 20.5214C11.2356 20.6806 10.6932 21.3178 10.6932 22.0346C10.6932 22.7514 11.2356 23.3885 11.9331 23.5478L10.0733 33.1051C9.99577 33.344 10.0733 33.583 10.2282 33.7423C10.3832 33.9015 10.6157 34.0608 10.8482 34.0608H29.3686C29.6011 34.0608 29.8336 33.9812 29.9886 33.7423C30.1435 33.583 30.221 33.344 30.1435 33.1051L28.2063 23.7071C28.9037 23.5478 29.4461 22.9107 29.4461 22.1939C29.4461 21.4771 28.9037 20.8399 28.2063 20.6806L29.8336 12.7162L34.2506 17.2559C34.5606 17.5745 35.0255 17.5745 35.3355 17.2559L39.985 12.4773C40.2174 11.9994 40.2174 11.5216 39.9075 11.203ZM20.0697 6.6633L15.7301 2.20323H24.3317L20.0697 6.6633ZM11.0032 10.1676C10.6932 10.088 10.4607 10.1676 10.2282 10.4066L5.42377 15.4241L1.85916 11.7605L11.1581 2.20323H13.6379L19.0623 7.77831L12.398 14.6277L11.6231 10.8048C11.4681 10.4862 11.3131 10.2473 11.0032 10.1676ZM11.7781 32.4679L13.5604 23.7071H17.5899L15.6526 27.769C15.2652 28.5654 15.5752 29.5211 16.3501 29.9193C17.125 30.3176 18.0549 29.999 18.4423 29.2025L20.1471 25.6982L21.852 29.2025C22.0844 29.7601 22.7044 30.0786 23.2468 30.0786C23.4793 30.0786 23.7118 29.999 23.9442 29.9193C24.7191 29.5211 25.0291 28.5654 24.6417 27.769L22.5494 23.7071H26.5789L28.3612 32.4679H11.7781ZM34.7155 15.4241L29.8336 10.4066C29.6011 10.1676 29.3686 10.088 29.0587 10.1676C28.7487 10.2473 28.5937 10.4862 28.5162 10.7251L26.5789 20.5214H13.5604L12.708 16.4595C12.7855 16.4595 12.8629 16.3799 12.8629 16.3799L26.5789 2.20323H29.0587L38.3576 11.7605L34.7155 15.4241Z" fill="#B6BECB"/>
</svg>
