<svg width="29" height="38" viewBox="0 0 29 38" fill="none" xmlns="http://www.w3.org/2000/svg">
<path d="M10.1168 32.6299L10.1568 32.5909C10.963 31.8058 10.963 30.5104 10.1568 29.7252L10.1168 29.6862C9.78091 29.3592 9.78091 28.8686 10.1168 28.5415C10.4526 28.2144 10.9564 28.2144 11.2922 28.5415L11.4082 28.6544C12.1847 29.4107 13.4224 29.4107 14.1989 28.6544L14.3149 28.5415C14.6507 28.2144 15.1545 28.2144 15.4903 28.5415C15.8262 28.8686 15.8262 29.3592 15.4903 29.6862L15.4503 29.7252C14.6441 30.5104 14.6441 31.8058 15.4503 32.5909L15.4903 32.6299C15.8262 32.9569 15.8262 33.4476 15.4903 33.7746C15.3224 33.9382 15.0705 34.0199 14.9026 34.0199C14.7347 34.0199 14.4828 33.9382 14.3149 33.7746L14.1989 33.6617C13.4224 32.9055 12.1847 32.9055 11.4082 33.6617L11.2922 33.7746C10.9564 34.1017 10.4526 34.1017 10.1168 33.7746C9.78091 33.4476 9.78091 32.9569 10.1168 32.6299ZM4.82715 28.2962C4.32337 28.2962 3.98753 28.6233 3.98753 29.1139V34.0199C3.98753 36.2277 8.52148 37.2906 12.8035 37.2906C17.0856 37.2906 21.6196 36.2277 21.6196 34.0199V29.1139C21.6196 28.6233 21.2837 28.2962 20.7799 28.2962C20.2762 28.2962 19.9403 28.6233 19.9403 29.1139V33.85C19.9403 33.9631 19.9335 34.0813 19.8592 34.1665C19.3881 34.7068 16.9306 35.6553 12.8035 35.6553C8.67644 35.6553 6.21901 34.7068 5.74789 34.1665C5.67358 34.0813 5.66677 33.9631 5.66677 33.85V29.1139C5.66677 28.6233 5.33092 28.2962 4.82715 28.2962ZM25.3139 8.83544L24.654 13.4948C24.6477 13.5387 24.6818 13.578 24.7262 13.578C25.7337 13.578 26.6573 13.9868 27.329 14.7227C28.0007 15.4586 28.2526 16.4398 28.1686 17.4211L27.6648 21.3459C27.161 24.3713 24.4743 26.6608 21.3677 26.6608H4.99507C3.73564 26.6608 2.64413 25.7614 2.47621 24.5349L0.377158 8.83544C0.0413103 6.70947 0.713006 4.58351 2.14036 3.02992C3.56772 1.39456 5.66677 0.495117 7.84978 0.495117H17.7573C19.9403 0.495117 22.0394 1.39456 23.4667 3.02992C24.8941 4.58351 25.5658 6.70947 25.3139 8.83544ZM24.8101 15.2133C24.5697 15.2133 24.3664 15.3911 24.3343 15.6294L23.7186 20.2012C23.6346 20.61 23.2988 20.9371 22.879 20.9371C22.8231 20.9371 22.767 20.933 22.7136 20.9169C22.3326 20.8017 22.0394 20.4196 22.0394 20.0376L22.795 14.3956L23.5507 8.75367C23.8026 7.11831 23.2988 5.48295 22.1233 4.25644C21.1158 2.86638 19.4365 2.13047 17.7573 2.13047H7.84978C6.17054 2.13047 4.4913 2.86638 3.39979 4.0929C2.30829 5.31942 1.80451 6.95478 2.0564 8.59013L4.23941 24.2896C4.32337 24.6984 4.65922 25.0255 5.07903 25.0255H21.4516C23.7186 25.0255 25.7337 23.3083 26.0695 21.1006L26.5733 17.1758C26.6573 16.6851 26.4894 16.1945 26.1535 15.7857C25.8177 15.3769 25.3139 15.2133 24.8101 15.2133Z" fill="#203260"/>
</svg>
