<svg width="29" height="38" viewBox="0 0 29 38" fill="none" xmlns="http://www.w3.org/2000/svg">
<path d="M10.1177 32.6299L10.1578 32.5909C10.964 31.8058 10.964 30.5104 10.1578 29.7252L10.1177 29.6862C9.78188 29.3592 9.78188 28.8686 10.1177 28.5415C10.4536 28.2144 10.9574 28.2144 11.2932 28.5415L11.4092 28.6544C12.1857 29.4107 13.4233 29.4107 14.1999 28.6544L14.3158 28.5415C14.6517 28.2144 15.1555 28.2144 15.4913 28.5415C15.8272 28.8686 15.8272 29.3592 15.4913 29.6862L15.4512 29.7252C14.6451 30.5104 14.6451 31.8058 15.4512 32.5909L15.4913 32.6299C15.8272 32.9569 15.8272 33.4476 15.4913 33.7746C15.3234 33.9382 15.0715 34.0199 14.9036 34.0199C14.7356 34.0199 14.4838 33.9382 14.3158 33.7746L14.1999 33.6617C13.4233 32.9055 12.1857 32.9055 11.4092 33.6617L11.2932 33.7746C10.9574 34.1017 10.4536 34.1017 10.1177 33.7746C9.78188 33.4476 9.78188 32.9569 10.1177 32.6299ZM4.82812 28.2962C4.32435 28.2962 3.9885 28.6233 3.9885 29.1139V34.0199C3.9885 36.2277 8.52245 37.2906 12.8045 37.2906C17.0866 37.2906 21.6205 36.2277 21.6205 34.0199V29.1139C21.6205 28.6233 21.2847 28.2962 20.7809 28.2962C20.2771 28.2962 19.9413 28.6233 19.9413 29.1139V33.85C19.9413 33.9631 19.9345 34.0813 19.8602 34.1665C19.389 34.7068 16.9316 35.6553 12.8045 35.6553C8.67742 35.6553 6.21999 34.7068 5.74886 34.1665C5.67455 34.0813 5.66774 33.9631 5.66774 33.85V29.1139C5.66774 28.6233 5.3319 28.2962 4.82812 28.2962ZM25.3149 8.83544L24.6549 13.4948C24.6487 13.5387 24.6828 13.578 24.7271 13.578C25.7347 13.578 26.6583 13.9868 27.33 14.7227C28.0016 15.4586 28.2535 16.4398 28.1696 17.4211L27.6658 21.3459C27.162 24.3713 24.4752 26.6608 21.3686 26.6608H4.99605C3.73662 26.6608 2.64511 25.7614 2.47719 24.5349L0.378135 8.83544C0.0422868 6.70947 0.713983 4.58351 2.14134 3.02992C3.56869 1.39456 5.66774 0.495117 7.85076 0.495117H17.7583C19.9413 0.495117 22.0403 1.39456 23.4677 3.02992C24.8951 4.58351 25.5667 6.70947 25.3149 8.83544ZM24.8111 15.2133C24.5707 15.2133 24.3673 15.3911 24.3353 15.6294L23.7196 20.2012C23.6356 20.61 23.2998 20.9371 22.88 20.9371C22.8241 20.9371 22.768 20.933 22.7145 20.9169C22.3336 20.8017 22.0403 20.4196 22.0403 20.0376L22.796 14.3956L23.5517 8.75367C23.8035 7.11831 23.2998 5.48295 22.1243 4.25644C21.1168 2.86638 19.4375 2.13047 17.7583 2.13047H7.85076C6.17152 2.13047 4.49227 2.86638 3.40077 4.0929C2.30926 5.31942 1.80549 6.95478 2.05738 8.59013L4.24039 24.2896C4.32435 24.6984 4.6602 25.0255 5.08001 25.0255H21.4526C23.7196 25.0255 25.7347 23.3083 26.0705 21.1006L26.5743 17.1758C26.6583 16.6851 26.4903 16.1945 26.1545 15.7857C25.8186 15.3769 25.3149 15.2133 24.8111 15.2133Z" fill="#B6BECB"/>
</svg>
