<svg width="35" height="38" viewBox="0 0 35 38" fill="none" xmlns="http://www.w3.org/2000/svg">
<g clip-path="url(#clip0)">
<path d="M10.0977 22.917L16.0281 28.0393C16.3669 28.3808 16.4517 28.8931 16.1128 29.2346C15.9433 29.4053 15.6892 29.4907 15.435 29.4907C15.3319 29.4907 15.1974 29.459 15.0697 29.415C14.9146 29.3616 14.7792 29.2657 14.6551 29.1585L8.91164 24.1976C8.57276 23.8561 8.48804 23.3438 8.82692 23.0024C9.1658 22.5755 9.67411 22.5755 10.0977 22.917ZM9.50467 29.4907C10.013 29.4907 10.3519 29.1492 10.3519 28.6369C10.3519 28.1247 10.013 27.7832 9.50467 27.7832C7.13253 27.7832 5.26871 25.905 5.26871 23.5146C5.26871 21.1242 7.13253 19.246 9.50467 19.246C11.8768 19.246 13.7406 21.1242 13.7406 23.5146C13.7406 24.0268 14.0795 24.3683 14.5878 24.3683C15.0962 24.3683 15.435 24.0268 15.435 23.5146C15.435 20.1851 12.8087 17.5385 9.50467 17.5385C6.20062 17.5385 3.57432 20.1851 3.57432 23.5146C3.57432 26.8441 6.20062 29.4907 9.50467 29.4907ZM4.4722 15.649C5.31575 15.0892 5.81681 14.0754 5.53197 13.104L4.24989 8.73113C4.00009 7.87915 3.21852 7.29383 2.33068 7.29383H1.87993C1.37162 7.29383 1.03274 6.95234 1.03274 6.44011C1.03274 5.92787 1.37162 5.58638 1.87993 5.58638H4.42151H9.50467C10.013 5.58638 10.3519 5.92787 10.3519 6.44011C10.3519 6.95234 10.013 7.29383 9.50467 7.29383H8.21749C6.87581 7.29383 5.91466 8.58881 6.30318 9.873L7.14305 12.649C7.42931 13.5952 8.36231 14.1483 9.35058 14.1255C9.4025 14.1243 9.4539 14.1236 9.50467 14.1236C10.5213 14.1236 11.5379 14.2944 12.4699 14.6359L23.5885 18.3469C24.7412 18.7316 25.9678 18.0079 26.1885 16.8129L27.8041 8.06218C28.0582 6.61085 29.329 5.58638 30.7692 5.58638C31.3623 5.58638 31.8706 5.24489 32.04 4.64728L33.1414 0.976269C33.2141 0.609896 33.5989 0.369305 33.9743 0.362455C34.0972 0.360212 34.2184 0.397081 34.3223 0.46274C34.645 0.666535 34.8241 1.03483 34.751 1.40313L33.6497 5.07415C33.2261 6.35473 32.1247 7.20846 30.7692 7.20846C30.1762 7.20846 29.5832 7.63532 29.4984 8.3183L27.4455 19.1587C27.409 19.3516 27.529 19.5395 27.7193 19.5875C30.5151 20.5266 32.3789 23.0877 32.3789 25.9904C32.3789 29.7468 29.329 32.7348 25.6014 32.7348H9.50467C4.42151 32.9056 0.185547 28.7223 0.185547 23.5146C0.185547 20.2202 1.91452 17.3463 4.4722 15.649ZM1.87993 23.5146C1.87993 27.7832 5.35343 31.1981 9.58939 31.1981H25.6861C28.4818 31.1981 30.7692 28.8931 30.7692 26.1611C30.7692 23.9415 29.4137 22.0633 27.2957 21.3803L12.0463 16.2579C11.1991 16.0018 10.3519 15.8311 9.50467 15.8311C5.35343 15.8311 1.87993 19.246 1.87993 23.5146ZM0.185547 34.613C0.185547 33.1617 1.2869 32.0518 2.72713 32.0518C3.31771 32.0518 3.85957 32.2482 4.28739 32.5883C4.96257 33.1251 5.68173 33.7593 6.54428 33.7593H27.7146C28.5771 33.7593 29.2963 33.1251 29.9714 32.5883C30.3993 32.2482 30.9411 32.0518 31.5317 32.0518C32.9719 32.0518 34.0733 33.1617 34.0733 34.613C34.0733 36.0643 32.9719 37.1742 31.5317 37.1742C30.9411 37.1742 30.3993 36.9778 29.9714 36.6377C29.2963 36.1009 28.5771 35.4667 27.7146 35.4667H6.54428C5.68173 35.4667 4.96257 36.1009 4.28739 36.6377C3.85957 36.9778 3.31771 37.1742 2.72713 37.1742C1.2869 37.1742 0.185547 36.0643 0.185547 34.613ZM30.6845 34.613C30.6845 35.1252 31.0234 35.4667 31.5317 35.4667C32.04 35.4667 32.3789 35.1252 32.3789 34.613C32.3789 34.1008 32.04 33.7593 31.5317 33.7593C31.0234 33.7593 30.6845 34.1861 30.6845 34.613ZM1.87993 34.613C1.87993 35.1252 2.21881 35.4667 2.72713 35.4667C3.23544 35.4667 3.57432 35.1252 3.57432 34.613C3.57432 34.1008 3.23544 33.7593 2.72713 33.7593C2.21881 33.7593 1.87993 34.1861 1.87993 34.613Z" fill="#203260"/>
</g>
<defs>
<clipPath id="clip0">
<rect width="34.5655" height="36.7955" fill="white" transform="translate(0.185547 0.379883)"/>
</clipPath>
</defs>
</svg>
