<svg width="38" height="35" viewBox="0 0 38 35" fill="none" xmlns="http://www.w3.org/2000/svg">
<g clip-path="url(#clip0)">
<path d="M2.11851 26.8182C1.21014 26.8182 0.453173 27.4242 0.150384 28.3333C-0.228102 29.4697 0.377475 30.6818 1.43724 31.1364C8.40138 33.7879 16.1982 35.1515 24.4492 35.1515C30.3536 35.1515 34.6683 34.4697 36.2579 34.1667C36.5607 34.0909 36.8635 34.0151 37.1663 33.7879C37.999 33.1818 38.3018 32.197 37.9233 31.1364L35.8795 26.5152C36.7121 25.8333 37.3177 24.7727 37.3177 23.5606C37.3177 22.0455 36.4093 20.6818 35.0468 20.0758L26.8715 16.5909L20.1344 9.84848C19.4532 9.16667 19.0747 8.25758 19.0747 7.27273V0.757576C19.0747 0.530303 18.999 0.30303 18.7719 0.151515C18.5448 0 18.3177 0 18.0906 0L5.97907 3.0303C5.60058 3.10606 5.37349 3.40909 5.37349 3.78788V6.81818C5.37349 8.25758 5.2221 9.77273 4.84361 11.1364L4.38943 12.803C4.01094 14.2424 3.93524 15.6818 4.08664 17.197L4.69222 20.5303L5.37349 25.7576V27.7273C4.46512 27.4242 3.63246 27.1212 2.79979 26.8182C2.57269 26.8182 2.3456 26.8182 2.11851 26.8182ZM5.90337 13.1818L6.35755 11.5152C6.73604 10 6.96313 8.40909 6.96313 6.81818V4.39394L17.5607 1.74242V7.27273C17.5607 8.63636 18.0906 9.92424 19.0747 10.9091L25.8874 17.7273C25.9631 17.803 26.0388 17.8788 26.1145 17.8788L34.4412 21.3636C35.2739 21.7424 35.8038 22.5 35.8038 23.4091C35.8038 24.6212 34.8197 25.6818 33.5328 25.6818H23.6165C22.7082 25.6818 21.7998 25.4545 20.9671 25.0758L13.6245 21.5152C13.5488 21.5152 13.5488 21.4394 13.4731 21.4394L6.13046 19.7727L5.67628 16.9697C5.44919 15.7576 5.52489 14.4697 5.90337 13.1818ZM33.003 30.0758C32.0189 30.2273 30.9591 30.303 29.8994 30.3788V27.2727H31.7918L33.003 30.0758ZM14.3058 24.3939C14.003 24.0909 13.5488 24.1667 13.246 24.4697L12.7918 25H6.81174L6.35755 21.4394L13.0946 22.9545L20.2858 26.5152C21.3456 27.0455 22.4811 27.2727 23.6165 27.2727H25.6603V30.6061C20.0588 30.6818 14.6842 30.1515 9.61253 28.9394V26.5152H13.1703C13.3974 26.5152 13.6245 26.4394 13.7759 26.2879L14.4572 25.5303C14.6086 25.1515 14.6085 24.697 14.3058 24.3939ZM5.97907 29.5455C6.20616 29.6212 6.43325 29.5455 6.66034 29.3939C6.88743 29.2424 6.96313 29.0152 6.96313 28.7879V26.5152H8.17429V29.5455C8.17429 29.9242 8.40138 30.2273 8.77987 30.303C13.7759 31.5152 19.0747 32.1212 24.5249 32.1212C25.2062 32.1212 25.8874 32.1212 26.5687 32.1212C26.9472 32.1212 27.3257 31.7424 27.3257 31.3636V27.2727H28.5368V31.2121C28.5368 31.4394 28.6125 31.5909 28.7639 31.7424C28.9153 31.8939 29.0667 31.9697 29.2938 31.9697C29.2938 31.9697 29.2938 31.9697 29.3695 31.9697C31.1105 31.8182 32.7759 31.6667 34.3655 31.4394C34.5926 31.4394 34.8197 31.2879 34.8954 31.0606C34.9711 30.8333 35.0468 30.6061 34.8954 30.3788L33.3815 27.2727H33.4572C33.8356 27.2727 34.1384 27.197 34.4412 27.1212L36.4093 31.5909C36.485 31.8939 36.4093 32.2727 36.1823 32.4242C36.1066 32.5 36.0309 32.5 35.8795 32.5C34.2898 32.803 30.1265 33.4848 24.3735 33.4848C16.2739 33.4848 8.70417 32.197 1.89142 29.6212C1.58863 29.5455 1.43724 29.0909 1.51293 28.7121C1.58863 28.4091 1.96712 28.1818 2.26991 28.3333C3.48106 28.7879 4.69222 29.1667 5.97907 29.5455ZM16.0468 12.5C16.0468 11.8939 16.5767 11.3636 17.1823 11.3636C17.7878 11.3636 18.3177 11.8939 18.3177 12.5C18.3177 13.1061 17.8635 13.6364 17.1823 13.6364C16.5767 13.6364 16.0468 13.1061 16.0468 12.5ZM19.0747 15.5303C19.0747 14.9242 19.6046 14.3939 20.2101 14.3939C20.8157 14.3939 21.3456 14.9242 21.3456 15.5303C21.3456 16.1364 20.8914 16.6667 20.2101 16.6667C19.6046 16.6667 19.0747 16.1364 19.0747 15.5303ZM22.1026 18.5606C22.1026 17.9545 22.6325 17.4242 23.238 17.4242C23.8436 17.4242 24.3735 17.9545 24.3735 18.5606C24.3735 19.1667 23.9193 19.697 23.238 19.697C22.6325 19.697 22.1026 19.1667 22.1026 18.5606Z" fill="#203260"/>
</g>
<defs>
<clipPath id="clip0">
<rect width="38" height="35" fill="white"/>
</clipPath>
</defs>
</svg>
