<svg width="24" height="26" viewBox="0 0 24 26" fill="none" xmlns="http://www.w3.org/2000/svg">
<path fill-rule="evenodd" clip-rule="evenodd" d="M23.2276 0H9.54199C8.50717 0 7.39473 1.12246 7.11015 1.56622C6.82558 2.00999 6.61861 2.50596 6.48926 2.97583H19.8903C20.5629 2.97583 22.2445 2.34934 23.2276 0Z" fill="white"/>
<path fill-rule="evenodd" clip-rule="evenodd" d="M22.7606 4.125H3.61634C2.14172 4.125 1.10689 4.8559 1.00341 5.97837C0.874054 7.30966 2.14172 8.06666 2.14172 8.06666C2.84022 7.12693 3.82331 7.10083 5.89296 7.10083H18.5437C19.3974 7.10083 21.5447 6.68317 22.7606 4.125Z" fill="white"/>
<path fill-rule="evenodd" clip-rule="evenodd" d="M13.5249 13L11.5329 16.5501V21.2749C11.5329 21.3532 11.5329 21.4576 11.5329 21.5359C11.4553 24.1463 10.1876 25.2688 8.01447 25.9997V16.5501L5.91895 13H13.5249Z" fill="white"/>
<path fill-rule="evenodd" clip-rule="evenodd" d="M6.17804 8.27539C11.8696 8.27539 16.4746 8.27539 19.8119 8.27539C18.7512 10.5986 16.7074 11.46 12.2059 11.2773C9.79993 11.2773 7.80789 11.2773 6.28153 11.2773C4.54819 11.2512 3.7462 10.703 3.84969 9.60668C3.9273 8.71915 4.70342 8.27539 6.17804 8.27539Z" fill="white"/>
</svg>
