<svg width="19" height="19" viewBox="0 0 19 19" fill="none" xmlns="http://www.w3.org/2000/svg">
<path d="M14.3242 8.53516C14.7341 8.53516 15.0664 8.20287 15.0664 7.79297C15.0664 7.38307 14.7341 7.05078 14.3242 7.05078C13.9143 7.05078 13.582 7.38307 13.582 7.79297C13.582 8.20287 13.9143 8.53516 14.3242 8.53516Z" fill="white"/>
<path d="M16.0312 1.48438H15.0664V0.742188C15.0664 0.333984 14.7324 0 14.3242 0C13.916 0 13.582 0.333984 13.582 0.742188V1.48438H10.2051V0.742188C10.2051 0.333984 9.87109 0 9.46289 0C9.05469 0 8.7207 0.333984 8.7207 0.742188V1.48438H5.38086V0.742188C5.38086 0.333984 5.04688 0 4.63867 0C4.23047 0 3.89648 0.333984 3.89648 0.742188V1.48438H2.96875C1.33223 1.48438 0 2.8166 0 4.45312V16.0312C0 17.6678 1.33223 19 2.96875 19H8.64648C9.05469 19 9.38867 18.666 9.38867 18.2578C9.38867 17.8496 9.05469 17.5156 8.64648 17.5156H2.96875C2.14863 17.5156 1.48438 16.8514 1.48438 16.0312V4.45312C1.48438 3.63301 2.14863 2.96875 2.96875 2.96875H3.89648V3.71094C3.89648 4.11914 4.23047 4.45312 4.63867 4.45312C5.04688 4.45312 5.38086 4.11914 5.38086 3.71094V2.96875H8.7207V3.71094C8.7207 4.11914 9.05469 4.45312 9.46289 4.45312C9.87109 4.45312 10.2051 4.11914 10.2051 3.71094V2.96875H13.582V3.71094C13.582 4.11914 13.916 4.45312 14.3242 4.45312C14.7324 4.45312 15.0664 4.11914 15.0664 3.71094V2.96875H16.0312C16.8514 2.96875 17.5156 3.63301 17.5156 4.45312V8.68359C17.5156 9.0918 17.8496 9.42578 18.2578 9.42578C18.666 9.42578 19 9.0918 19 8.68359V4.45312C19 2.8166 17.6678 1.48438 16.0312 1.48438Z" fill="white"/>
<path d="M14.5098 10.0195C12.0346 10.0195 10.0195 12.0346 10.0195 14.5098C10.0195 16.985 12.0346 19 14.5098 19C16.985 19 19 16.985 19 14.5098C19 12.0346 16.985 10.0195 14.5098 10.0195ZM14.5098 17.5156C12.851 17.5156 11.5039 16.1686 11.5039 14.5098C11.5039 12.851 12.851 11.5039 14.5098 11.5039C16.1686 11.5039 17.5156 12.851 17.5156 14.5098C17.5156 16.1686 16.1686 17.5156 14.5098 17.5156Z" fill="white"/>
<path d="M15.5859 13.7676H15.252V12.9883C15.252 12.5801 14.918 12.2461 14.5098 12.2461C14.1016 12.2461 13.7676 12.5801 13.7676 12.9883V14.5098C13.7676 14.918 14.1016 15.252 14.5098 15.252H15.5859C15.9941 15.252 16.3281 14.918 16.3281 14.5098C16.3281 14.1016 15.9941 13.7676 15.5859 13.7676Z" fill="white"/>
<path d="M11.0957 8.53516C11.5056 8.53516 11.8379 8.20287 11.8379 7.79297C11.8379 7.38307 11.5056 7.05078 11.0957 7.05078C10.6858 7.05078 10.3535 7.38307 10.3535 7.79297C10.3535 8.20287 10.6858 8.53516 11.0957 8.53516Z" fill="white"/>
<path d="M7.86719 11.7637C8.27709 11.7637 8.60938 11.4314 8.60938 11.0215C8.60938 10.6116 8.27709 10.2793 7.86719 10.2793C7.45729 10.2793 7.125 10.6116 7.125 11.0215C7.125 11.4314 7.45729 11.7637 7.86719 11.7637Z" fill="white"/>
<path d="M4.63867 8.53516C5.04857 8.53516 5.38086 8.20287 5.38086 7.79297C5.38086 7.38307 5.04857 7.05078 4.63867 7.05078C4.22877 7.05078 3.89648 7.38307 3.89648 7.79297C3.89648 8.20287 4.22877 8.53516 4.63867 8.53516Z" fill="white"/>
<path d="M4.63867 11.7637C5.04857 11.7637 5.38086 11.4314 5.38086 11.0215C5.38086 10.6116 5.04857 10.2793 4.63867 10.2793C4.22877 10.2793 3.89648 10.6116 3.89648 11.0215C3.89648 11.4314 4.22877 11.7637 4.63867 11.7637Z" fill="white"/>
<path d="M4.63867 14.9922C5.04857 14.9922 5.38086 14.6599 5.38086 14.25C5.38086 13.8401 5.04857 13.5078 4.63867 13.5078C4.22877 13.5078 3.89648 13.8401 3.89648 14.25C3.89648 14.6599 4.22877 14.9922 4.63867 14.9922Z" fill="white"/>
<path d="M7.86719 14.9922C8.27709 14.9922 8.60938 14.6599 8.60938 14.25C8.60938 13.8401 8.27709 13.5078 7.86719 13.5078C7.45729 13.5078 7.125 13.8401 7.125 14.25C7.125 14.6599 7.45729 14.9922 7.86719 14.9922Z" fill="white"/>
<path d="M7.86719 8.53516C8.27709 8.53516 8.60938 8.20287 8.60938 7.79297C8.60938 7.38307 8.27709 7.05078 7.86719 7.05078C7.45729 7.05078 7.125 7.38307 7.125 7.79297C7.125 8.20287 7.45729 8.53516 7.86719 8.53516Z" fill="white"/>
</svg>
