<svg width="21" height="21" viewBox="0 0 21 21" fill="none" xmlns="http://www.w3.org/2000/svg">
<path d="M8.41362 3.77191L8.41393 3.77222C9.10973 4.47195 9.10201 5.58902 8.41373 6.27731L8.37556 6.31548L8.36594 6.3251L8.36112 6.32991L8.35871 6.33232L8.3563 6.33474L8.34663 6.3444L8.34179 6.34925L8.33694 6.3541L8.33209 6.35895L8.32966 6.36138L8.32723 6.36381L8.32479 6.36624L8.32236 6.36868L8.31749 6.37355L8.31261 6.37843L8.31017 6.38087L8.30773 6.38331L8.30284 6.38819L8.29795 6.39309L8.2955 6.39553L8.29306 6.39798L8.28816 6.40288L8.28325 6.40779L8.27834 6.4127L8.25867 6.43237L8.1795 6.51154L8.17453 6.5165L8.17205 6.51899L8.16957 6.52147L8.16709 6.52395L8.1646 6.52643L8.15964 6.5314L8.15715 6.53388L8.15467 6.53637L8.15219 6.53885L8.1497 6.54134L8.14473 6.5463L8.13977 6.55127L8.1199 6.57114L8.10997 6.58107L8.105 6.58604L8.10004 6.591L8.09011 6.60092L8.08763 6.6034L8.08515 6.60588L8.0802 6.61084L8.06038 6.63065L8.05544 6.6356L8.05296 6.63808L8.05049 6.64055L8.04802 6.64302L8.04555 6.64549L8.04308 6.64796L8.04061 6.65043L8.02088 6.67016L8.01842 6.67262L8.01596 6.67508L8.0135 6.67754L8.01104 6.68L8.00858 6.68246L8.00612 6.68492L8.00366 6.68737L8.00121 6.68983L7.9963 6.69474L7.99385 6.69719L7.9914 6.69964L7.9816 6.70943L7.94263 6.74841L7.92327 6.76776L7.90403 6.78701L7.89923 6.79181L7.89684 6.7942L7.89444 6.7966L7.89205 6.79899L7.88966 6.80138L7.88489 6.80615L7.88012 6.81092L7.87774 6.8133L7.87537 6.81567L7.86587 6.82517L7.86351 6.82753L7.86114 6.8299L7.85878 6.83226L7.85641 6.83462L7.85405 6.83698L7.8517 6.83934L7.84934 6.8417L7.84699 6.84405L7.84464 6.8464L7.84229 6.84875L7.83994 6.8511L7.8376 6.85344L7.82825 6.86279L7.82591 6.86513L7.82358 6.86746L7.81893 6.87211L7.81661 6.87443L7.81429 6.87675L7.80965 6.88139L7.80503 6.88601L7.80041 6.89062L7.79581 6.89523L7.79351 6.89753L7.79122 6.89982L7.78893 6.90211L7.78664 6.9044L7.78206 6.90898L7.77295 6.91809L7.77068 6.92036L7.76841 6.92263L7.76615 6.92489L7.76389 6.92715L7.76163 6.92941L7.75937 6.93167L7.75711 6.93392L7.75486 6.93618L7.71926 6.97178L7.65059 7.04045L7.64227 7.04877L7.63813 7.05291L7.63401 7.05703L7.61768 7.07336L7.60962 7.08142L7.60561 7.08543L7.60162 7.08942L7.59963 7.09141L7.59764 7.0934L7.59368 7.09735L7.58582 7.10522L7.57031 7.12073L7.55508 7.13596L7.5532 7.13784L7.55132 7.13972L7.54945 7.14159L7.54758 7.14346L7.54386 7.14718L7.54016 7.15088L7.53831 7.15273L7.53647 7.15457L7.53464 7.1564L7.53281 7.15823L7.53098 7.16006L7.52916 7.16188L7.52735 7.16369L7.52554 7.1655L7.49727 7.19377L7.48363 7.20741L7.48028 7.21076L7.47694 7.2141L7.47034 7.2207L7.46383 7.22721L7.45741 7.23363L7.45423 7.23681L7.45108 7.23996L7.44484 7.2462L7.43265 7.25839L7.43115 7.25989L7.42966 7.26138L7.42817 7.26287L7.42669 7.26435L7.42083 7.27021L7.41508 7.27596L7.41365 7.27739L7.41223 7.27881L7.41082 7.28022L7.40942 7.28162L7.3984 7.29264L7.39705 7.29399L7.39571 7.29533L7.39437 7.29667L7.39304 7.298L7.39041 7.30063L7.38779 7.30325L7.37761 7.31343L7.37513 7.31591L7.3739 7.31714L7.37268 7.31836L7.36786 7.32318L7.36667 7.32437L7.36549 7.32555L7.36431 7.32673L7.36314 7.3279L7.36083 7.33021L7.35968 7.33136L7.35854 7.3325L7.34127 7.34977C6.88676 7.80428 6.88676 8.54252 7.34127 8.99703L11.9985 13.6543C12.453 14.1088 13.1912 14.1088 13.6457 13.6543L14.7182 12.5818C15.4067 11.8933 16.5313 11.8933 17.2198 12.5818L19.5799 14.942C20.2722 15.6342 20.2719 16.755 19.5801 17.4508L19.5799 17.451L18.7227 18.3082C16.3309 20.7 12.4565 20.7 10.0647 18.3082L10.0647 18.3082L2.69106 10.9308C0.302981 8.54275 0.302981 4.66088 2.69106 2.2728L2.69166 2.27219L2.69166 2.2722C2.84143 2.12496 2.96156 2.00564 3.17858 1.79006C3.27846 1.69085 3.39886 1.57125 3.55211 1.41916C4.24055 0.73085 5.36503 0.730853 6.05346 1.41917L8.41362 3.77191ZM8.41362 3.77191L6.05357 1.41928L8.41362 3.77191ZM4.47608 2.34776L4.47642 2.34742C4.65261 2.17124 4.94554 2.17124 5.12172 2.34742L5.12183 2.34753L7.48188 4.70016C7.66211 4.88039 7.66123 5.16914 7.48248 5.34485L7.48188 5.34546L7.15927 5.66807L4.15778 2.66303L4.47608 2.34776ZM3.61921 9.999L3.6192 9.99898C1.86434 8.24412 1.74634 5.50884 3.24825 3.6134L6.24409 6.60925C5.44867 7.58361 5.50375 9.01947 6.4131 9.92885C6.41311 9.92886 6.41312 9.92887 6.41313 9.92888L11.0666 14.5861L11.0666 14.5861C11.9762 15.4956 13.4086 15.5505 14.3861 14.755L17.3821 17.751C15.4902 19.2496 12.7585 19.142 10.9928 17.3763L3.61921 9.999ZM18.3291 16.8418L15.32 13.8326L15.642 13.5105C15.6421 13.5105 15.6422 13.5104 15.6423 13.5103C15.8235 13.3325 16.1124 13.3314 16.2873 13.5093L16.2879 13.5099L18.6481 15.8701L18.6487 15.8707C18.8316 16.0506 18.8316 16.3393 18.6518 16.5191L18.3291 16.8418Z" fill="white" stroke="white" stroke-width="0.2"/>
</svg>
