<svg width="30" height="35" viewBox="0 0 30 35" fill="none" xmlns="http://www.w3.org/2000/svg">
<path d="M22.5 34.1667C22.5 34.6667 22.1667 35 21.6667 35H8.33333C7.83333 35 7.5 34.6667 7.5 34.1667C7.5 33.6667 7.83333 33.3333 8.33333 33.3333H21.6667C22.1667 33.3333 22.5 33.6667 22.5 34.1667ZM29.75 2.75C29.9167 2.91667 30 3.16667 30 3.41667C29.75 8.08333 28.8333 12.5833 27.3333 16.25C26.75 17.5 25.5 18.3333 24 18.3333H22.4167C20.5833 21.1667 18.3333 22.9167 15.8333 23.25V31.6667C15.8333 32.1667 15.5 32.5 15 32.5C14.5 32.5 14.1667 32.1667 14.1667 31.6667V23.25C11.6667 22.9167 9.41667 21.1667 7.58333 18.3333H5.91667C4.5 18.3333 3.16667 17.5 2.66667 16.1667C1.16667 12.5 0.25 8.08333 0 3.41667C0 3.16667 0.0833333 3 0.25 2.83333C0.416667 2.58333 0.583333 2.5 0.833333 2.5H3.41667C3.41667 1.91667 3.41667 1.41667 3.41667 0.833333C3.41667 0.333333 3.75 0 4.25 0H25.9167C26.4167 0 26.75 0.333333 26.75 0.833333C26.75 1.41667 26.75 1.91667 26.75 2.5H29.25C29.4167 2.5 29.5833 2.58333 29.75 2.75ZM6.66667 16.6667C5 13.3333 3.83333 9.08333 3.5 4.16667H1.75C2.08333 8.33333 2.91667 12.25 4.25 15.5833C4.5 16.25 5.16667 16.6667 6 16.6667H6.66667ZM25 1.66667H5C5.25 12.5833 9.66667 21.6667 15 21.6667C20.3333 21.6667 24.75 12.5833 25 1.66667ZM28.25 4.16667H26.5C26.1667 9.08333 25 13.3333 23.3333 16.6667H24C24.75 16.6667 25.4167 16.25 25.75 15.5833C27.0833 12.25 28 8.33333 28.25 4.16667Z" fill="#203260"/>
</svg>
