<svg width="35" height="35" viewBox="0 0 35 35" fill="none" xmlns="http://www.w3.org/2000/svg">
<mask id="path-1-inside-1" fill="white">
<path d="M20.9167 4.91667C18.9167 3.83333 16.75 3.66667 15.25 3.66667C14.4167 3.66667 13.9167 3.75 13.9167 3.75C13.75 3.75 13.6667 3.83333 13.5 3.91667C13.4167 3.91667 10.9167 5.83333 9.83333 9.16667C9.75 9.41667 9.83333 9.75 10 10C11.75 12.0833 14.0833 14.25 14.1667 14.3333C14.3333 14.5 14.5 14.5833 14.75 14.5833C14.9167 14.5833 15 14.5833 15.1667 14.5C18.1667 12.9167 21.1667 12.1667 21.1667 12.1667C21.5 12.0833 21.75 11.8333 21.8333 11.4167C21.8333 11.3333 22.0833 8.83333 21.4167 5.5C21.3333 5.25 21.1667 5 20.9167 4.91667ZM20.0833 10.6667C19.0833 10.9167 17 11.5833 14.8333 12.6667C14.1667 12 12.75 10.5833 11.5 9.25C12.3333 7.16667 13.8333 5.75 14.3333 5.33333C14.5 5.33333 14.8333 5.33333 15.25 5.33333C16.5 5.33333 18.1667 5.5 19.75 6.25C20.1667 8.25 20.1667 9.83333 20.0833 10.6667ZM19.1667 24.1667C16.5833 22.75 14.25 20.0833 14.25 20.0833C14 19.75 13.5 19.6667 13.1667 19.9167C13.1667 19.9167 10.5833 21.5 8.08333 22.4167C7.75 22.5833 7.5 22.9167 7.58333 23.25C8 27 9.66667 29.1667 9.75 29.25C10.5 30.1667 14 30.75 15.4167 30.75C16 30.75 16.5833 30.6667 17 30.5833C17.0833 30.5833 17.1667 30.5 17.25 30.4167C17.5833 30.1667 18.4167 29.25 19.5833 25C19.75 24.75 19.5 24.4167 19.1667 24.1667ZM16.3333 29.1667C16.0833 29.1667 15.8333 29.1667 15.4167 29.1667C13.6667 29.1667 11.5 28.5 11 28.25C10.75 27.9167 9.75 26.3333 9.33333 23.75C11 23.0833 12.6667 22.1667 13.5 21.6667C14.25 22.5 15.9167 24.1667 17.8333 25.3333C17.0833 27.8333 16.5833 28.8333 16.3333 29.1667ZM35 17.5C35 7.83333 27.1667 0 17.5 0C7.83333 0 0 7.83333 0 17.5C0 27.1667 7.83333 35 17.5 35C27.1667 35 35 27.1667 35 17.5ZM3.33333 18.3333C3.08333 18.5 2.75 18.6667 2.41667 18.9167C2.33333 18.4167 2.33333 17.8333 2.33333 17.3333C2.33333 15.5833 2.58333 13.8333 3.16667 12.1667C3.33333 11.8333 3.5 11.5833 3.66667 11.3333C3.91667 11.6667 4.16667 12 4.41667 12.25C4.08333 13.1667 3.41667 15.1667 3.33333 17.75C3.33333 17.9167 3.33333 18.1667 3.33333 18.3333ZM28 29.3333C27.9167 29.25 27.75 29.25 27.5833 29.25C27.25 29.25 27 29.1667 27 29.1667C26.75 29.0833 26.3333 29.0833 26.1667 29.3333C24.1667 31.0833 20.6667 31.6667 20.6667 31.6667C20.4167 31.75 20.1667 31.9167 20.0833 32.1667C20.0833 32.1667 19.9167 32.5 19.4167 32.8333C19.25 32.9167 19.0833 33.1667 19.0833 33.3333C18.5 33.3333 18 33.3333 17.5 33.3333C14.4167 33.3333 11.5833 32.4167 9.16667 30.9167C9.16667 30.8333 9.25 30.75 9.25 30.6667C9.25 30.5 9.33333 30.3333 9.33333 30.3333C9.41667 30.0833 9.41667 29.8333 9.33333 29.5833C9.25 29.3333 9 29.1667 8.75 29.1667C8.25 29.0833 7.75 28.9167 7.25 28.5833C7 28.4167 6.58333 28.4167 6.33333 28.5833C4.25 26.5 2.75 23.8333 2.16667 20.9167C2.25 20.9167 2.33333 21 2.41667 21C2.41667 21 2.41667 21 2.5 21C2.75 21 3 20.8333 3.08333 20.6667C3.41667 20.25 4.25 19.75 4.75 19.5C5.08333 19.3333 5.25 19 5.16667 18.6667C5.16667 18.3333 5.16667 18 5.16667 17.6667C5.16667 14.5833 6.25 12.3333 6.25 12.3333C6.41667 12 6.33333 11.5833 6.08333 11.3333C5.83333 11.3333 5.33333 10.8333 5 10.25C4.83333 10 4.75 9.75 4.66667 9.58333C4.58333 9.33333 4.41667 9.16667 4.16667 9.08333C5.58333 6.83333 7.58333 5 9.91667 3.75C10 3.83333 10.1667 3.83333 10.25 3.83333C10.3333 3.83333 10.4167 3.83333 10.5 3.75C11.5833 3.25 12.5 3.16667 12.5 3.16667C12.6667 3.16667 12.9167 3 13 2.91667C13 2.91667 13.25 2.66667 14 2.33333C14.1667 2.25 14.3333 2.16667 14.4167 2C15.4167 1.75 16.4167 1.66667 17.5 1.66667C19.25 1.66667 20.9167 1.91667 22.4167 2.5C22.5 2.58333 22.5833 2.66667 22.6667 2.75C24 3.66667 24.1667 4.41667 24.1667 4.41667C24.1667 4.75 24.4167 5 24.75 5.16667C24.75 5.16667 27.3333 6.16667 29.3333 9.16667C29.5 9.41667 29.9167 9.58333 30.25 9.5C30.25 9.5 30.5833 9.41667 31.0833 9.66667C31.1667 9.66667 31.25 9.66667 31.3333 9.75C32.6667 12.0833 33.4167 14.75 33.4167 17.5833C33.4167 18.3333 33.3333 19 33.25 19.75C32.8333 15.5833 31.3333 13.9167 31.3333 13.8333C31.0833 13.5833 30.75 13.5 30.4167 13.5833C30.4167 13.5833 28.25 14.4167 26.0833 15C25.6667 15.0833 25.4167 15.5 25.5 15.9167C25.5 15.9167 25.8333 18.8333 24.5833 22.3333C24.5 22.6667 24.5833 23 24.75 23.1667C25.4167 23.8333 27.8333 25.1667 28.8333 25.75C28.9167 25.8333 29.0833 25.8333 29.1667 25.8333C29.3333 25.8333 29.4167 25.8333 29.5833 25.75C29.6667 25.6667 31.6667 24.5 33.1667 20.75C32.3333 24 30.5833 27 28 29.3333ZM27.0833 16.3333C28.4167 15.9167 29.5833 15.5833 30.25 15.3333C30.6667 16 31.25 17.4167 31.5 19.9167C30.5833 22.25 29.5 23.4167 28.9167 23.9167C27.9167 23.4167 26.75 22.6667 26.0833 22.25C27 19.5833 27.0833 17.4167 27.0833 16.3333Z"/>
</mask>
<path d="M20.9167 4.91667C18.9167 3.83333 16.75 3.66667 15.25 3.66667C14.4167 3.66667 13.9167 3.75 13.9167 3.75C13.75 3.75 13.6667 3.83333 13.5 3.91667C13.4167 3.91667 10.9167 5.83333 9.83333 9.16667C9.75 9.41667 9.83333 9.75 10 10C11.75 12.0833 14.0833 14.25 14.1667 14.3333C14.3333 14.5 14.5 14.5833 14.75 14.5833C14.9167 14.5833 15 14.5833 15.1667 14.5C18.1667 12.9167 21.1667 12.1667 21.1667 12.1667C21.5 12.0833 21.75 11.8333 21.8333 11.4167C21.8333 11.3333 22.0833 8.83333 21.4167 5.5C21.3333 5.25 21.1667 5 20.9167 4.91667ZM20.0833 10.6667C19.0833 10.9167 17 11.5833 14.8333 12.6667C14.1667 12 12.75 10.5833 11.5 9.25C12.3333 7.16667 13.8333 5.75 14.3333 5.33333C14.5 5.33333 14.8333 5.33333 15.25 5.33333C16.5 5.33333 18.1667 5.5 19.75 6.25C20.1667 8.25 20.1667 9.83333 20.0833 10.6667ZM19.1667 24.1667C16.5833 22.75 14.25 20.0833 14.25 20.0833C14 19.75 13.5 19.6667 13.1667 19.9167C13.1667 19.9167 10.5833 21.5 8.08333 22.4167C7.75 22.5833 7.5 22.9167 7.58333 23.25C8 27 9.66667 29.1667 9.75 29.25C10.5 30.1667 14 30.75 15.4167 30.75C16 30.75 16.5833 30.6667 17 30.5833C17.0833 30.5833 17.1667 30.5 17.25 30.4167C17.5833 30.1667 18.4167 29.25 19.5833 25C19.75 24.75 19.5 24.4167 19.1667 24.1667ZM16.3333 29.1667C16.0833 29.1667 15.8333 29.1667 15.4167 29.1667C13.6667 29.1667 11.5 28.5 11 28.25C10.75 27.9167 9.75 26.3333 9.33333 23.75C11 23.0833 12.6667 22.1667 13.5 21.6667C14.25 22.5 15.9167 24.1667 17.8333 25.3333C17.0833 27.8333 16.5833 28.8333 16.3333 29.1667ZM35 17.5C35 7.83333 27.1667 0 17.5 0C7.83333 0 0 7.83333 0 17.5C0 27.1667 7.83333 35 17.5 35C27.1667 35 35 27.1667 35 17.5ZM3.33333 18.3333C3.08333 18.5 2.75 18.6667 2.41667 18.9167C2.33333 18.4167 2.33333 17.8333 2.33333 17.3333C2.33333 15.5833 2.58333 13.8333 3.16667 12.1667C3.33333 11.8333 3.5 11.5833 3.66667 11.3333C3.91667 11.6667 4.16667 12 4.41667 12.25C4.08333 13.1667 3.41667 15.1667 3.33333 17.75C3.33333 17.9167 3.33333 18.1667 3.33333 18.3333ZM28 29.3333C27.9167 29.25 27.75 29.25 27.5833 29.25C27.25 29.25 27 29.1667 27 29.1667C26.75 29.0833 26.3333 29.0833 26.1667 29.3333C24.1667 31.0833 20.6667 31.6667 20.6667 31.6667C20.4167 31.75 20.1667 31.9167 20.0833 32.1667C20.0833 32.1667 19.9167 32.5 19.4167 32.8333C19.25 32.9167 19.0833 33.1667 19.0833 33.3333C18.5 33.3333 18 33.3333 17.5 33.3333C14.4167 33.3333 11.5833 32.4167 9.16667 30.9167C9.16667 30.8333 9.25 30.75 9.25 30.6667C9.25 30.5 9.33333 30.3333 9.33333 30.3333C9.41667 30.0833 9.41667 29.8333 9.33333 29.5833C9.25 29.3333 9 29.1667 8.75 29.1667C8.25 29.0833 7.75 28.9167 7.25 28.5833C7 28.4167 6.58333 28.4167 6.33333 28.5833C4.25 26.5 2.75 23.8333 2.16667 20.9167C2.25 20.9167 2.33333 21 2.41667 21C2.41667 21 2.41667 21 2.5 21C2.75 21 3 20.8333 3.08333 20.6667C3.41667 20.25 4.25 19.75 4.75 19.5C5.08333 19.3333 5.25 19 5.16667 18.6667C5.16667 18.3333 5.16667 18 5.16667 17.6667C5.16667 14.5833 6.25 12.3333 6.25 12.3333C6.41667 12 6.33333 11.5833 6.08333 11.3333C5.83333 11.3333 5.33333 10.8333 5 10.25C4.83333 10 4.75 9.75 4.66667 9.58333C4.58333 9.33333 4.41667 9.16667 4.16667 9.08333C5.58333 6.83333 7.58333 5 9.91667 3.75C10 3.83333 10.1667 3.83333 10.25 3.83333C10.3333 3.83333 10.4167 3.83333 10.5 3.75C11.5833 3.25 12.5 3.16667 12.5 3.16667C12.6667 3.16667 12.9167 3 13 2.91667C13 2.91667 13.25 2.66667 14 2.33333C14.1667 2.25 14.3333 2.16667 14.4167 2C15.4167 1.75 16.4167 1.66667 17.5 1.66667C19.25 1.66667 20.9167 1.91667 22.4167 2.5C22.5 2.58333 22.5833 2.66667 22.6667 2.75C24 3.66667 24.1667 4.41667 24.1667 4.41667C24.1667 4.75 24.4167 5 24.75 5.16667C24.75 5.16667 27.3333 6.16667 29.3333 9.16667C29.5 9.41667 29.9167 9.58333 30.25 9.5C30.25 9.5 30.5833 9.41667 31.0833 9.66667C31.1667 9.66667 31.25 9.66667 31.3333 9.75C32.6667 12.0833 33.4167 14.75 33.4167 17.5833C33.4167 18.3333 33.3333 19 33.25 19.75C32.8333 15.5833 31.3333 13.9167 31.3333 13.8333C31.0833 13.5833 30.75 13.5 30.4167 13.5833C30.4167 13.5833 28.25 14.4167 26.0833 15C25.6667 15.0833 25.4167 15.5 25.5 15.9167C25.5 15.9167 25.8333 18.8333 24.5833 22.3333C24.5 22.6667 24.5833 23 24.75 23.1667C25.4167 23.8333 27.8333 25.1667 28.8333 25.75C28.9167 25.8333 29.0833 25.8333 29.1667 25.8333C29.3333 25.8333 29.4167 25.8333 29.5833 25.75C29.6667 25.6667 31.6667 24.5 33.1667 20.75C32.3333 24 30.5833 27 28 29.3333ZM27.0833 16.3333C28.4167 15.9167 29.5833 15.5833 30.25 15.3333C30.6667 16 31.25 17.4167 31.5 19.9167C30.5833 22.25 29.5 23.4167 28.9167 23.9167C27.9167 23.4167 26.75 22.6667 26.0833 22.25C27 19.5833 27.0833 17.4167 27.0833 16.3333Z" fill="#203260" stroke="#F9F9F9" stroke-width="0.2" mask="url(#path-1-inside-1)"/>
</svg>
