<svg width="10" height="15" viewBox="0 0 10 15" fill="none" xmlns="http://www.w3.org/2000/svg">
<path d="M9.76375 3.73518C9.71313 3.53639 9.60851 3.32016 9.53088 3.13532C8.59939 0.826552 6.57104 0 4.93081 0C2.73709 0 0.323996 1.52058 0 4.65241V5.29412C0 5.32202 0.0101249 5.55917 0.0202497 5.68124C0.202497 7.17391 1.34323 8.76075 2.19372 10.2534C3.10834 11.8542 4.06007 13.4271 5.00169 15C5.58218 13.9747 6.16267 12.9319 6.72967 11.9344C6.88491 11.6415 7.06379 11.3485 7.21904 11.066C7.32366 10.8812 7.51941 10.6929 7.61053 10.5185C8.52514 8.78517 10 7.0379 10 5.31853V4.61056C10 4.42571 9.77725 3.77354 9.76375 3.73518ZM4.97131 6.94722C4.3267 6.94722 3.62133 6.61242 3.27371 5.69519C3.22308 5.54871 3.22646 5.25575 3.22646 5.22785V4.81283C3.22646 3.64101 4.1917 3.10742 5.02869 3.10742C6.06142 3.10742 6.85791 3.96187 6.85791 5.02906C6.85791 6.09277 6.00405 6.94722 4.97131 6.94722Z" fill="#002368"/>
</svg>
