<svg width="61" height="26" viewBox="0 0 61 26" fill="none" xmlns="http://www.w3.org/2000/svg">
<g clip-path="url(#clip0)">
<path d="M48.4325 16.6403L48.4325 16.6402C48.4205 12.5877 45.115 9.30842 41.0171 9.30842C36.9194 9.30842 33.6018 12.5876 33.6018 16.6403C33.6018 20.693 36.9194 23.9722 41.0171 23.9722C45.1148 23.9722 48.4325 20.693 48.4325 16.6403ZM41.017 25.9494C35.8156 25.9493 31.6008 21.7814 31.6008 16.6403C31.6008 11.4991 35.8156 7.33125 41.0171 7.33125C46.2186 7.33125 50.4335 11.4991 50.4335 16.6403C50.4335 21.7696 46.2187 25.9376 41.017 25.9494Z" fill="#203260" stroke="white" stroke-width="0.1"/>
<path d="M51.5329 2.02717H51.5327C47.435 2.02717 44.1174 5.30639 44.1174 9.35906C44.1174 13.4117 47.435 16.6909 51.5327 16.6909C55.6305 16.6909 58.9481 13.4117 58.9481 9.35906L58.9481 9.35891C58.9361 5.31822 55.6305 2.03905 51.5329 2.02717ZM51.5326 18.6681C46.3312 18.6681 42.1164 14.5002 42.1164 9.35906C42.1164 4.21789 46.3312 0.05 51.5327 0.05C56.7342 0.05 60.9491 4.21789 60.9491 9.35906C60.9491 14.5001 56.7343 18.6564 51.5326 18.6681Z" fill="#203260" stroke="white" stroke-width="0.1"/>
<path d="M19.9828 25.9494C14.7814 25.9493 10.5666 21.7814 10.5666 16.6403C10.5666 11.4991 14.7814 7.33125 19.9829 7.33125C25.1844 7.33125 29.3993 11.4991 29.3993 16.6403C29.3993 21.7696 25.1845 25.9376 19.9828 25.9494ZM19.9829 9.30842C15.8852 9.30842 12.5676 12.5876 12.5676 16.6403C12.5676 20.693 15.8852 23.9722 19.9829 23.9722C24.0807 23.9722 27.3983 20.693 27.3983 16.6403C27.3983 12.5876 24.0807 9.30842 19.9829 9.30842Z" fill="#203260" stroke="white" stroke-width="0.1"/>
<path d="M9.46649 2.02717H9.46634C5.36862 2.02717 2.05098 5.30639 2.05098 9.35906C2.05098 13.4118 5.38061 16.6909 9.46634 16.6909C13.5641 16.6909 16.8817 13.4117 16.8817 9.35906C16.8817 5.31812 13.564 2.03905 9.46649 2.02717ZM9.46623 18.6681C4.26478 18.6681 0.05 14.5002 0.05 9.35906C0.05 4.21789 4.26484 0.05 9.46634 0.05C14.6678 0.05 18.8827 4.21789 18.8827 9.35906C18.8827 14.5001 14.6679 18.6564 9.46623 18.6681Z" fill="#203260" stroke="white" stroke-width="0.1"/>
<path d="M30.4997 2.02717H30.4995C26.4018 2.02717 23.0842 5.30639 23.0842 9.35906C23.0842 13.4117 26.4018 16.6909 30.4995 16.6909C34.5973 16.6909 37.9149 13.4117 37.9149 9.35906L37.9149 9.35891C37.9029 5.31822 34.5974 2.03905 30.4997 2.02717ZM30.4994 18.6681C25.298 18.6681 21.0832 14.5002 21.0832 9.35906C21.0832 4.21789 25.298 0.05 30.4995 0.05C35.701 0.05 39.9159 4.21789 39.9159 9.35906C39.9159 14.5001 35.7011 18.6564 30.4994 18.6681Z" fill="#203260" stroke="white" stroke-width="0.1"/>
<path d="M12.6789 16.6407C12.6789 16.4039 12.6899 16.178 12.7118 15.9418C15.0089 14.8367 16.5699 12.6339 16.8536 10.1235C17.504 9.81083 18.1872 9.60625 18.8929 9.49945C18.8219 13.3067 16.4179 16.692 12.8207 18.0489C12.7227 17.5868 12.6789 17.114 12.6789 16.6407Z" fill="#203260" stroke="white" stroke-width="0.1"/>
<path d="M0.263527 11.3192L0.263518 11.3191C-0.840591 6.29544 2.38852 1.34128 7.47117 0.249383C12.536 -0.838681 17.5294 2.3287 18.657 7.32219C17.9878 7.4155 17.3397 7.57297 16.713 7.80479C15.9703 4.43562 12.9556 2.02703 9.46615 2.02703C5.36843 2.02703 2.05079 5.30626 2.05079 9.35892C2.05079 13.4116 5.36843 16.6908 9.46615 16.6908C9.79653 16.6908 10.137 16.6589 10.4666 16.6154V16.6155V16.6156V16.6157V16.6159V16.616V16.6161V16.6163V16.6164V16.6166V16.6167V16.6168V16.617V16.6171V16.6172V16.6174V16.6175V16.6177V16.6178V16.6179V16.6181V16.6182V16.6184V16.6185V16.6186V16.6188V16.6189V16.619V16.6192V16.6193V16.6195V16.6196V16.6197V16.6199V16.62V16.6202V16.6203V16.6204V16.6206V16.6207V16.6208V16.621V16.6211V16.6213V16.6214V16.6215V16.6217V16.6218V16.622V16.6221V16.6222V16.6224V16.6225V16.6226V16.6228V16.6229V16.6231V16.6232V16.6233V16.6235V16.6236V16.6237V16.6239V16.624V16.6242V16.6243V16.6244V16.6246V16.6247V16.6249V16.625V16.6251V16.6253V16.6254V16.6255V16.6257V16.6258V16.626V16.6261V16.6262V16.6264V16.6265V16.6267V16.6268V16.6269V16.6271V16.6272V16.6273V16.6275V16.6276V16.6278V16.6279V16.628V16.6282V16.6283V16.6285V16.6286V16.6287V16.6289V16.629C10.4666 17.2755 10.5348 17.9333 10.6712 18.5696C10.273 18.6239 9.87488 18.6562 9.46615 18.6562C5.03659 18.6562 1.20147 15.6036 0.263527 11.3192Z" fill="#203260" stroke="white" stroke-width="0.1"/>
<path d="M12.6039 15.8923L12.6038 15.8927C12.5798 16.142 12.5678 16.3797 12.5678 16.6292C12.5678 20.6819 15.8854 23.9611 19.9832 23.9611C23.4724 23.9611 26.4872 21.5528 27.2065 18.1835C27.8336 18.4152 28.4916 18.5725 29.1501 18.6658C28.1924 22.8989 24.3825 25.9148 19.983 25.9265C14.7816 25.9264 10.5668 21.7703 10.5549 16.6292V16.5469C10.6023 12.7159 13.0124 9.30297 16.628 7.93913C16.7259 8.40121 16.7698 8.87404 16.7698 9.34733C16.7698 9.58385 16.7588 9.82026 16.737 10.0461C14.4314 11.1552 12.8674 13.3703 12.6039 15.8923Z" fill="#203260" stroke="white" stroke-width="0.1"/>
<path d="M23.2722 7.92997L23.2727 7.93015C26.912 9.2736 29.3397 12.6741 29.3872 16.4889C28.6816 16.3924 27.9877 16.1776 27.3477 15.8755C27.0746 13.3558 25.5031 11.1461 23.1922 10.0451C21.8757 9.41195 20.407 9.18376 18.9709 9.38346V9.35851C18.9709 8.71192 18.9027 8.05409 18.7664 7.41772C20.2926 7.20631 21.8404 7.38462 23.2722 7.92997Z" fill="#203260" stroke="white" stroke-width="0.1"/>
<path d="M29.2298 18.5857L29.2289 18.5856C24.6168 17.9659 21.1595 14.1096 21.084 9.51027C21.7895 9.60675 22.4833 9.82155 23.1232 10.1236C23.3963 12.6432 24.9678 14.853 27.2787 15.9539C28.5952 16.5871 30.0639 16.8153 31.5 16.6156V16.6158V16.616V16.6162V16.6164V16.6166V16.6168V16.617V16.6172V16.6174V16.6176V16.6179V16.6181V16.6183V16.6185V16.6187V16.6189V16.6191V16.6193V16.6195V16.6198V16.62V16.6202V16.6204V16.6206V16.6208V16.6211V16.6213V16.6215V16.6217V16.6219V16.6221V16.6224V16.6226V16.6228V16.623V16.6232V16.6235V16.6237V16.6239V16.6241V16.6243V16.6246V16.6248V16.625V16.6252V16.6255V16.6257V16.6259V16.6261V16.6264V16.6266V16.6268V16.627V16.6273V16.6275V16.6277V16.628V16.6282V16.6284V16.6286V16.6289V16.6291V16.6293V16.6296V16.6298V16.63V16.6303V16.6305V16.6307V16.631V16.6312V16.6314V16.6317V16.6319V16.6321V16.6324V16.6326V16.6329V16.6331V16.6333V16.6336V16.6338V16.6341V16.6343V16.6345V16.6348V16.635V16.6353V16.6355V16.6358V16.636V16.6362V16.6365V16.6367V16.637V16.6372V16.6375V16.6377V16.638V16.6382V16.6385V16.6387V16.639V16.6392V16.6395V16.6397V16.64V16.6402V16.6405V16.6407V16.641V16.6412V16.6415V16.6418V16.642V16.6423V16.6425V16.6428V16.643V16.6433V16.6436V16.6438V16.6441V16.6443V16.6446V16.6449V16.6451V16.6454V16.6457V16.6459V16.6462V16.6464V16.6467V16.647V16.6472V16.6475V16.6478V16.648V16.6483V16.6486V16.6489V16.6491V16.6494V16.6497V16.6499V16.6502V16.6505V16.6508V16.651V16.6513V16.6516V16.6518V16.6521V16.6524C31.5 17.2991 31.5683 17.9571 31.7047 18.5936C30.8797 18.7147 30.0548 18.7121 29.2298 18.5857Z" fill="#203260" stroke="white" stroke-width="0.1"/>
<path d="M33.7131 16.6407C33.7131 16.4039 33.7241 16.178 33.746 15.9418C36.0431 14.8367 37.6041 12.6338 37.876 10.1232C38.5151 9.8108 39.2089 9.60622 39.9153 9.49942C39.856 13.3066 37.4521 16.6919 33.8549 18.0489C33.7569 17.5868 33.7131 17.114 33.7131 16.6407Z" fill="#203260" stroke="white" stroke-width="0.1"/>
<path d="M32.0017 2.18161L32.0017 2.18161C28.0193 1.36577 24.1075 3.89163 23.2526 7.81668C22.6254 7.58495 21.9673 7.42756 21.3087 7.33426C22.2782 3.07766 26.0881 0.0617531 30.4995 0.0500002C34.9107 0.0617529 38.7207 3.08918 39.6902 7.33415C39.0211 7.42745 38.3731 7.5849 37.7465 7.81668C37.1276 4.97993 34.8787 2.77173 32.0017 2.18161Z" fill="#203260" stroke="white" stroke-width="0.1"/>
<path d="M51.532 16.6791H51.5325C55.0414 16.6791 58.0824 14.2436 58.7916 10.8445C59.6211 6.88682 57.0365 3.00141 53.0347 2.18161C49.0523 1.36577 45.1405 3.89163 44.2856 7.81668C43.6584 7.58495 43.0003 7.42756 42.3418 7.33426C43.3112 3.07764 47.1212 0.0617228 51.5326 0.05C56.7341 0.0500355 60.9489 4.21796 60.9608 9.34737C60.9607 14.4885 56.7459 18.6563 51.5445 18.6563C51.1174 18.6563 50.69 18.6211 50.2742 18.5624L50.2738 18.5623C45.662 17.9427 42.2049 14.0869 42.1289 9.48792C42.834 9.59518 43.5172 9.81019 44.1682 10.1124C44.4413 12.632 46.0129 14.8416 48.3237 15.9425C49.3212 16.4178 50.4147 16.6673 51.532 16.6791Z" fill="#203260" stroke="white" stroke-width="0.1"/>
<path d="M44.3054 7.92997L44.3059 7.93015C47.9453 9.2736 50.3729 12.6741 50.4204 16.4889C49.7155 16.3924 49.0322 16.1776 48.3809 15.8753C48.1078 13.3557 46.5363 11.1461 44.2254 10.0451C42.9089 9.41195 41.4402 9.18376 40.0041 9.38346V9.35851C40.0041 8.71192 39.936 8.05409 39.7996 7.41772C41.3258 7.20631 42.8736 7.38462 44.3054 7.92997Z" fill="#203260" stroke="white" stroke-width="0.1"/>
<path d="M33.6498 15.904L33.6497 15.9044C33.6257 16.1538 33.6137 16.3914 33.6137 16.6409C33.6137 20.123 36.0779 23.1174 39.5149 23.8184C43.4974 24.6342 47.4091 22.1084 48.2641 18.1833C48.8908 18.4151 49.5383 18.5728 50.1962 18.6767C49.2388 22.9102 45.4287 25.9265 41.0289 25.9382C35.8275 25.9381 31.6127 21.782 31.6008 16.6409V16.5586C31.6482 12.7277 34.0583 9.31469 37.6739 7.95085C37.7718 8.41293 37.8157 8.88576 37.8157 9.35905C37.8157 9.59557 37.8047 9.83198 37.7829 10.0578C35.4773 11.167 33.9133 13.382 33.6498 15.904Z" fill="#203260" stroke="white" stroke-width="0.1"/>
</g>
<defs>
<clipPath id="clip0">
<rect width="61" height="26" fill="white"/>
</clipPath>
</defs>
</svg>
