<svg width="61" height="26" viewBox="0 0 61 26" fill="none" xmlns="http://www.w3.org/2000/svg">
<g clip-path="url(#clip0)">
<path d="M48.4325 16.6403L48.4325 16.6402C48.4205 12.5877 45.115 9.30842 41.0171 9.30842C36.9194 9.30842 33.6018 12.5876 33.6018 16.6403C33.6018 20.693 36.9194 23.9722 41.0171 23.9722C45.1148 23.9722 48.4325 20.693 48.4325 16.6403ZM41.017 25.9494C35.8156 25.9493 31.6008 21.7814 31.6008 16.6403C31.6008 11.4991 35.8156 7.33125 41.0171 7.33125C46.2186 7.33125 50.4335 11.4991 50.4335 16.6403C50.4335 21.7696 46.2187 25.9376 41.017 25.9494Z" fill="#B6BECB" stroke="white" stroke-width="0.1"/>
<path d="M51.5348 2.02717H51.5347C47.437 2.02717 44.1193 5.30639 44.1193 9.35906C44.1193 13.4117 47.437 16.6909 51.5347 16.6909C55.6324 16.6909 58.95 13.4117 58.95 9.35906L58.95 9.35891C58.938 5.31822 55.6325 2.03905 51.5348 2.02717ZM51.5346 18.6681C46.3331 18.6681 42.1184 14.5002 42.1184 9.35906C42.1184 4.21789 46.3332 0.05 51.5347 0.05C56.7362 0.05 60.951 4.21789 60.951 9.35906C60.951 14.5001 56.7363 18.6564 51.5346 18.6681Z" fill="#B6BECB" stroke="white" stroke-width="0.1"/>
<path d="M19.9838 25.9494C14.7824 25.9493 10.5676 21.7814 10.5676 16.6403C10.5676 11.4991 14.7824 7.33125 19.9839 7.33125C25.1854 7.33125 29.4003 11.4991 29.4003 16.6403C29.4003 21.7696 25.1855 25.9376 19.9838 25.9494ZM19.9839 9.30842C15.8862 9.30842 12.5686 12.5876 12.5686 16.6403C12.5686 20.693 15.8862 23.9722 19.9839 23.9722C24.0816 23.9722 27.3993 20.693 27.3993 16.6403C27.3993 12.5876 24.0816 9.30842 19.9839 9.30842Z" fill="#B6BECB" stroke="white" stroke-width="0.1"/>
<path d="M9.46649 2.02717H9.46634C5.36862 2.02717 2.05098 5.30639 2.05098 9.35906C2.05098 13.4118 5.38061 16.6909 9.46634 16.6909C13.5641 16.6909 16.8817 13.4117 16.8817 9.35906C16.8817 5.31812 13.564 2.03905 9.46649 2.02717ZM9.46623 18.6681C4.26478 18.6681 0.05 14.5002 0.05 9.35906C0.05 4.21789 4.26484 0.05 9.46634 0.05C14.6678 0.05 18.8827 4.21789 18.8827 9.35906C18.8827 14.5001 14.6679 18.6564 9.46623 18.6681Z" fill="#B6BECB" stroke="white" stroke-width="0.1"/>
<path d="M30.4997 2.02717H30.4995C26.4018 2.02717 23.0842 5.30639 23.0842 9.35906C23.0842 13.4117 26.4018 16.6909 30.4995 16.6909C34.5973 16.6909 37.9149 13.4117 37.9149 9.35906L37.9149 9.35891C37.9029 5.31822 34.5974 2.03905 30.4997 2.02717ZM30.4994 18.6681C25.298 18.6681 21.0832 14.5002 21.0832 9.35906C21.0832 4.21789 25.298 0.05 30.4995 0.05C35.701 0.05 39.9159 4.21789 39.9159 9.35906C39.9159 14.5001 35.7011 18.6564 30.4994 18.6681Z" fill="#B6BECB" stroke="white" stroke-width="0.1"/>
<path d="M12.6809 16.6407C12.6809 16.4039 12.6918 16.178 12.7138 15.9418C15.0109 14.8367 16.5718 12.6339 16.8556 10.1235C17.5059 9.81083 18.1891 9.60625 18.8948 9.49945C18.8238 13.3067 16.4198 16.692 12.8227 18.0489C12.7247 17.5868 12.6809 17.114 12.6809 16.6407Z" fill="#B6BECB" stroke="white" stroke-width="0.1"/>
<path d="M0.264504 11.3192L0.264495 11.3191C-0.839615 6.29544 2.3895 1.34128 7.47215 0.249383C12.537 -0.838681 17.5304 2.3287 18.658 7.32219C17.9888 7.4155 17.3407 7.57297 16.714 7.80479C15.9713 4.43562 12.9566 2.02703 9.46713 2.02703C5.36941 2.02703 2.05177 5.30626 2.05177 9.35892C2.05177 13.4116 5.36941 16.6908 9.46713 16.6908C9.79751 16.6908 10.1379 16.6589 10.4676 16.6154V16.6155V16.6156V16.6157V16.6159V16.616V16.6161V16.6163V16.6164V16.6166V16.6167V16.6168V16.617V16.6171V16.6172V16.6174V16.6175V16.6177V16.6178V16.6179V16.6181V16.6182V16.6184V16.6185V16.6186V16.6188V16.6189V16.619V16.6192V16.6193V16.6195V16.6196V16.6197V16.6199V16.62V16.6202V16.6203V16.6204V16.6206V16.6207V16.6208V16.621V16.6211V16.6213V16.6214V16.6215V16.6217V16.6218V16.622V16.6221V16.6222V16.6224V16.6225V16.6226V16.6228V16.6229V16.6231V16.6232V16.6233V16.6235V16.6236V16.6237V16.6239V16.624V16.6242V16.6243V16.6244V16.6246V16.6247V16.6249V16.625V16.6251V16.6253V16.6254V16.6255V16.6257V16.6258V16.626V16.6261V16.6262V16.6264V16.6265V16.6267V16.6268V16.6269V16.6271V16.6272V16.6273V16.6275V16.6276V16.6278V16.6279V16.628V16.6282V16.6283V16.6285V16.6286V16.6287V16.6289V16.629C10.4676 17.2755 10.5358 17.9333 10.6722 18.5696C10.274 18.6239 9.87585 18.6562 9.46713 18.6562C5.03757 18.6562 1.20244 15.6036 0.264504 11.3192Z" fill="#B6BECB" stroke="white" stroke-width="0.1"/>
<path d="M12.6049 15.8923L12.6048 15.8927C12.5808 16.142 12.5688 16.3797 12.5688 16.6292C12.5688 20.6819 15.8864 23.9611 19.9841 23.9611C23.4734 23.9611 26.4882 21.5528 27.2075 18.1835C27.8345 18.4152 28.4926 18.5725 29.1511 18.6658C28.1934 22.8989 24.3835 25.9148 19.984 25.9265C14.7825 25.9264 10.5678 21.7703 10.5559 16.6292V16.5469C10.6032 12.7159 13.0134 9.30297 16.6289 7.93913C16.7269 8.40121 16.7707 8.87404 16.7707 9.34733C16.7707 9.58385 16.7598 9.82026 16.7379 10.0461C14.4324 11.1552 12.8683 13.3703 12.6049 15.8923Z" fill="#B6BECB" stroke="white" stroke-width="0.1"/>
<path d="M23.2732 7.92997L23.2737 7.93015C26.913 9.2736 29.3407 12.6741 29.3882 16.4889C28.6826 16.3924 27.9887 16.1776 27.3487 15.8755C27.0756 13.3558 25.5041 11.1461 23.1932 10.0451C21.8767 9.41195 20.408 9.18376 18.9719 9.38346V9.35851C18.9719 8.71192 18.9037 8.05409 18.7673 7.41772C20.2935 7.20631 21.8414 7.38462 23.2732 7.92997Z" fill="#B6BECB" stroke="white" stroke-width="0.1"/>
<path d="M29.2298 18.5857L29.2289 18.5856C24.6168 17.9659 21.1595 14.1096 21.084 9.51027C21.7895 9.60675 22.4833 9.82155 23.1232 10.1236C23.3963 12.6432 24.9678 14.853 27.2787 15.9539C28.5952 16.5871 30.0639 16.8153 31.5 16.6156V16.6158V16.616V16.6162V16.6164V16.6166V16.6168V16.617V16.6172V16.6174V16.6176V16.6179V16.6181V16.6183V16.6185V16.6187V16.6189V16.6191V16.6193V16.6195V16.6198V16.62V16.6202V16.6204V16.6206V16.6208V16.6211V16.6213V16.6215V16.6217V16.6219V16.6221V16.6224V16.6226V16.6228V16.623V16.6232V16.6235V16.6237V16.6239V16.6241V16.6243V16.6246V16.6248V16.625V16.6252V16.6255V16.6257V16.6259V16.6261V16.6264V16.6266V16.6268V16.627V16.6273V16.6275V16.6277V16.628V16.6282V16.6284V16.6286V16.6289V16.6291V16.6293V16.6296V16.6298V16.63V16.6303V16.6305V16.6307V16.631V16.6312V16.6314V16.6317V16.6319V16.6321V16.6324V16.6326V16.6329V16.6331V16.6333V16.6336V16.6338V16.6341V16.6343V16.6345V16.6348V16.635V16.6353V16.6355V16.6358V16.636V16.6362V16.6365V16.6367V16.637V16.6372V16.6375V16.6377V16.638V16.6382V16.6385V16.6387V16.639V16.6392V16.6395V16.6397V16.64V16.6402V16.6405V16.6407V16.641V16.6412V16.6415V16.6418V16.642V16.6423V16.6425V16.6428V16.643V16.6433V16.6436V16.6438V16.6441V16.6443V16.6446V16.6449V16.6451V16.6454V16.6457V16.6459V16.6462V16.6464V16.6467V16.647V16.6472V16.6475V16.6478V16.648V16.6483V16.6486V16.6489V16.6491V16.6494V16.6497V16.6499V16.6502V16.6505V16.6508V16.651V16.6513V16.6516V16.6518V16.6521V16.6524C31.5 17.2991 31.5683 17.9571 31.7047 18.5936C30.8797 18.7147 30.0548 18.7121 29.2298 18.5857Z" fill="#B6BECB" stroke="white" stroke-width="0.1"/>
<path d="M33.7121 16.6407C33.7121 16.4039 33.7231 16.178 33.745 15.9418C36.0421 14.8367 37.6031 12.6338 37.8751 10.1232C38.5141 9.8108 39.2079 9.60622 39.9143 9.49942C39.855 13.3066 37.4512 16.6919 33.8539 18.0489C33.7559 17.5868 33.7121 17.114 33.7121 16.6407Z" fill="#B6BECB" stroke="white" stroke-width="0.1"/>
<path d="M32.0017 2.18161L32.0017 2.18161C28.0193 1.36577 24.1075 3.89163 23.2526 7.81668C22.6254 7.58495 21.9673 7.42756 21.3087 7.33426C22.2782 3.07766 26.0881 0.0617531 30.4995 0.0500002C34.9107 0.0617529 38.7207 3.08918 39.6902 7.33415C39.0211 7.42745 38.3731 7.5849 37.7465 7.81668C37.1276 4.97993 34.8787 2.77173 32.0017 2.18161Z" fill="#B6BECB" stroke="white" stroke-width="0.1"/>
<path d="M51.5339 16.6791H51.5345C55.0433 16.6791 58.0843 14.2436 58.7936 10.8445C59.623 6.88682 57.0384 3.00141 53.0367 2.18161C49.0542 1.36577 45.1425 3.89163 44.2875 7.81668C43.6604 7.58495 43.0023 7.42756 42.3437 7.33426C43.3132 3.07764 47.1231 0.0617228 51.5345 0.05C56.736 0.0500355 60.9509 4.21796 60.9627 9.34737C60.9627 14.4885 56.7479 18.6563 51.5464 18.6563C51.1194 18.6563 50.692 18.6211 50.2761 18.5624L50.2758 18.5623C45.664 17.9427 42.2069 14.0869 42.1309 9.48792C42.8359 9.59518 43.5192 9.81019 44.1701 10.1124C44.4433 12.632 46.0148 14.8416 48.3257 15.9425C49.3232 16.4178 50.4167 16.6673 51.5339 16.6791Z" fill="#B6BECB" stroke="white" stroke-width="0.1"/>
<path d="M44.3064 7.92997L44.3069 7.93015C47.9462 9.2736 50.3739 12.6741 50.4214 16.4889C49.7165 16.3924 49.0332 16.1776 48.3819 15.8753C48.1087 13.3557 46.5372 11.1461 44.2264 10.0451C42.9099 9.41195 41.4412 9.18376 40.0051 9.38346V9.35851C40.0051 8.71192 39.9369 8.05409 39.8005 7.41772C41.3268 7.20631 42.8746 7.38462 44.3064 7.92997Z" fill="#B6BECB" stroke="white" stroke-width="0.1"/>
<path d="M33.6498 15.904L33.6497 15.9044C33.6257 16.1538 33.6137 16.3914 33.6137 16.6409C33.6137 20.123 36.0779 23.1174 39.5149 23.8184C43.4974 24.6342 47.4091 22.1084 48.2641 18.1833C48.8908 18.4151 49.5383 18.5728 50.1962 18.6767C49.2388 22.9102 45.4287 25.9265 41.0289 25.9382C35.8275 25.9381 31.6127 21.782 31.6008 16.6409V16.5586C31.6482 12.7277 34.0583 9.31469 37.6739 7.95085C37.7718 8.41293 37.8157 8.88576 37.8157 9.35905C37.8157 9.59557 37.8047 9.83198 37.7829 10.0578C35.4773 11.167 33.9133 13.382 33.6498 15.904Z" fill="#B6BECB" stroke="white" stroke-width="0.1"/>
</g>
<defs>
<clipPath id="clip0">
<rect width="61" height="26" fill="white"/>
</clipPath>
</defs>
</svg>
