<svg width="49" height="25" viewBox="0 0 49 25" fill="none" xmlns="http://www.w3.org/2000/svg">
<g clip-path="url(#clip0)">
<path d="M24.5996 20.2003C24.6996 20.2003 24.7996 20.3003 24.9996 20.3003C25.3996 20.3003 25.7996 20.0003 25.8996 19.6003C25.8996 19.5003 28.1996 13.4003 32.2996 12.1003C32.7996 11.9003 33.0996 11.4003 32.8996 10.8003C32.6996 10.3003 32.1996 10.0003 31.5996 10.2003C26.5996 11.9003 24.0996 18.6003 23.9996 18.9003C23.8996 19.4003 24.0996 20.0003 24.5996 20.2003Z" fill="#203260"/>
<path d="M48.4996 22.4998C48.4996 22.4998 44.4996 19.7998 38.6996 12.5998C38.4996 12.3998 38.1996 12.1998 37.8996 12.1998C31.6996 12.1998 27.9996 20.3998 27.1996 22.4998C24.5996 23.1998 11.6996 25.4998 7.39963 10.8998C7.19963 10.3998 6.69963 10.0998 6.19963 10.1998C5.69963 10.3998 5.39963 10.8998 5.49963 11.4998C8.89963 22.8998 17.1996 24.9998 22.7996 24.9998C25.8996 24.9998 28.1996 24.2998 28.2996 24.2998C28.5996 24.1998 28.7996 23.9998 28.9996 23.6998C28.9996 23.5998 32.1996 14.6998 37.5996 14.2998C43.3996 21.4998 47.2996 24.0998 47.4996 24.2998C47.9996 24.5998 48.5996 24.4998 48.8996 23.9998C49.0996 23.3998 48.9996 22.7998 48.4996 22.4998Z" fill="#203260"/>
<path d="M5.40039 8.6C8.70039 6.8 12.9004 4.9 15.5004 5.5C16.3004 5.7 16.8004 6 17.2004 6.7C18.4004 8.7 14.4004 12.8 12.4004 14.5C12.0004 14.9 11.9004 15.5 12.2004 15.9C12.4004 16.1 12.7004 16.3 13.0004 16.3C13.2004 16.3 13.4004 16.2 13.6004 16.1C14.4004 15.5 21.3004 9.7 18.9004 5.7C18.2004 4.6 17.3004 3.9 15.9004 3.6C14.5004 3.3 12.7004 3.5 10.9004 4.1C10.6004 1.7 8.80039 0 6.50039 0C4.00039 0 2.00039 2 2.00039 4.6C2.00039 5.7 2.40039 6.8 3.10039 7.6C1.60039 8.5 0.600391 9.2 0.400391 9.3C-0.0996094 9.6 -0.199609 10.3 0.100391 10.7C0.400391 11.2 1.00039 11.3 1.50039 11C2.40039 10.4 3.80039 9.5 5.40039 8.6ZM4.00039 4.6C4.00039 3.2 5.10039 2 6.50039 2C7.90039 2 9.00039 3.2 9.00039 4.6C9.00039 4.6 9.00039 4.6 9.00039 4.7C7.60039 5.2 6.20039 5.9 5.00039 6.5C4.40039 6.1 4.00039 5.3 4.00039 4.6Z" fill="#203260"/>
</g>
<defs>
<clipPath id="clip0">
<rect width="49" height="25" fill="white"/>
</clipPath>
</defs>
</svg>
