<svg width="44" height="34" viewBox="0 0 44 34" fill="none" xmlns="http://www.w3.org/2000/svg">
<path d="M35.0005 24C34.4005 24 34.0005 23.6 34.0005 23V5C34.0005 2.2 36.2005 0 39.0005 0C39.6005 0 40.0005 0.4 40.0005 1C40.0005 1.6 39.6005 2 39.0005 2C37.3005 2 36.0005 3.3 36.0005 5V23C36.0005 23.6 35.6005 24 35.0005 24ZM29.0005 2C29.6005 2 30.0005 1.6 30.0005 1C30.0005 0.4 29.6005 0 29.0005 0C26.2005 0 24.0005 2.2 24.0005 5V21C24.0005 21.6 24.4005 22 25.0005 22C25.6005 22 26.0005 21.6 26.0005 21V19H32.0005C32.6005 19 33.0005 18.6 33.0005 18C33.0005 17.4 32.6005 17 32.0005 17H26.0005V14H32.0005C32.6005 14 33.0005 13.6 33.0005 13C33.0005 12.4 32.6005 12 32.0005 12H26.0005V9H32.0005C32.6005 9 33.0005 8.6 33.0005 8C33.0005 7.4 32.6005 7 32.0005 7H26.0005V5C26.0005 3.3 27.4005 2 29.0005 2ZM42.5005 24.1C36.2005 27.9 28.8005 27.9 22.5005 24.1C15.6005 19.9 7.40048 19.9 0.500481 24.1C0.000480801 24.4 -0.0995192 25 0.100481 25.5C0.400481 26 1.00048 26.1 1.50048 25.8C7.80048 22 15.2005 22 21.5005 25.8C24.9005 27.9 28.7005 28.9 32.5005 28.9C36.3005 28.9 40.1005 27.9 43.5005 25.8C44.0005 25.5 44.1005 24.9 43.8005 24.4C43.6005 24 43.0005 23.8 42.5005 24.1ZM42.5005 29.1C36.2005 32.9 28.8005 32.9 22.5005 29.1C15.6005 24.9 7.40048 24.9 0.500481 29.1C0.000480801 29.4 -0.0995192 30 0.100481 30.5C0.400481 31 1.00048 31.1 1.50048 30.8C7.80048 27 15.2005 27 21.5005 30.8C25.0005 32.9 28.7005 33.9 32.5005 33.9C36.3005 33.9 40.1005 32.9 43.5005 30.8C44.0005 30.5 44.1005 29.9 43.8005 29.4C43.6005 29 43.0005 28.8 42.5005 29.1Z" fill="#203260"/>
</svg>
