<svg width="43" height="35" viewBox="0 0 43 35" fill="none" xmlns="http://www.w3.org/2000/svg">
<g clip-path="url(#clip0)">
<path d="M42.75 11.0833L31.9585 0.25C31.8755 0.0833333 31.6264 0 31.4604 0H11.5376C11.2886 0 11.1226 0.0833333 10.9566 0.25L0.16505 11.0833C-0.166996 11.4167 -0.166996 11.9167 0.16505 12.25L5.14575 17.25C5.47779 17.5833 5.97586 17.5833 6.30791 17.25L11.0396 12.5L12.7828 20.8333C12.0357 21 11.4546 21.6667 11.4546 22.4167C11.4546 23.1667 12.0357 23.8333 12.7828 24L10.7905 34C10.7075 34.25 10.7905 34.5 10.9566 34.6667C11.1226 34.8333 11.3716 35 11.6206 35H31.4604C31.7095 35 31.9585 34.9167 32.1245 34.6667C32.2905 34.5 32.3735 34.25 32.2905 34L30.2152 24.1667C30.9623 24 31.5434 23.3333 31.5434 22.5833C31.5434 21.8333 30.9623 21.1667 30.2152 21L31.9585 12.6667L36.6901 17.4167C37.0222 17.75 37.5203 17.75 37.8523 17.4167L42.833 12.4167C43.082 11.9167 43.082 11.4167 42.75 11.0833ZM21.499 6.33333L16.8504 1.66667H26.0647L21.499 6.33333ZM11.7867 10C11.4546 9.91667 11.2056 10 10.9566 10.25L5.80984 15.5L1.99131 11.6667L11.9527 1.66667H14.6091L20.4199 7.5L13.2809 14.6667L12.4508 10.6667C12.2847 10.3333 12.1187 10.0833 11.7867 10ZM12.6168 33.3333L14.5261 24.1667H18.8427L16.7674 28.4167C16.3523 29.25 16.6844 30.25 17.5145 30.6667C18.3446 31.0833 19.3407 30.75 19.7558 29.9167L21.582 26.25L23.4083 29.9167C23.6573 30.5 24.3214 30.8333 24.9025 30.8333C25.1515 30.8333 25.4006 30.75 25.6496 30.6667C26.4797 30.25 26.8118 29.25 26.3967 28.4167L24.1554 24.1667H28.472L30.3813 33.3333H12.6168ZM37.1882 15.5L31.9585 10.25C31.7095 10 31.4604 9.91667 31.1284 10C30.7963 10.0833 30.6303 10.3333 30.5473 10.5833L28.472 20.8333H14.5261L13.6129 16.5833C13.6959 16.5833 13.779 16.5 13.779 16.5L28.472 1.66667H31.1284L41.0898 11.6667L37.1882 15.5Z" fill="#203260"/>
</g>
<defs>
<clipPath id="clip0">
<rect width="43" height="35" fill="white"/>
</clipPath>
</defs>
</svg>
