<svg width="27" height="46" viewBox="0 0 27 46" fill="none" xmlns="http://www.w3.org/2000/svg">
<path d="M12.7635 26.6615C12.8797 25.4411 12.1281 25.2022 11.3062 25.1143C10.0732 24.9825 8.83607 24.9178 7.45828 24.8248C7.41058 23.0757 7.37807 21.3006 7.33319 19.3966C9.09307 19.343 10.7854 19.2856 12.5191 19.2171C12.555 18.8551 12.5869 18.5602 12.6215 18.1105C13.5924 18.0923 14.5579 18.0537 15.5964 18.0394C15.6129 18.4314 15.6017 18.7207 15.5961 19.0306C15.0996 19.1637 14.6444 19.2858 14.0444 19.4467C14.0782 21.3096 14.1079 23.2397 14.157 25.0765C14.6492 25.6713 16.0341 24.8814 15.7578 26.4972C14.8447 26.5659 13.8793 26.6046 12.7635 26.6615ZM8.85461 23.0849C10.14 23.2467 11.3578 23.4047 12.6693 23.5815C12.6517 22.7714 12.6133 21.9668 12.5791 21.095C11.2399 21.1458 10.051 21.1784 8.82074 21.222C8.83155 21.9239 8.85067 22.4913 8.85461 23.0849Z" fill="#203260"/>
<path d="M18.6762 42.9147C16.523 43.7344 14.5505 44.4836 12.3973 45.3033C11.8765 43.8573 11.2894 42.4951 10.9147 41.098C10.4519 39.3722 11.9556 38.1981 13.4324 38.9913C13.6272 38.1462 14.0108 37.4267 14.9915 37.3619C16.019 37.3066 16.6519 37.9297 17.0129 38.7799C17.589 40.1009 18.0823 41.4442 18.6762 42.9147ZM15.5168 42.1322C15.9554 41.9485 16.2906 41.7926 16.6465 41.6311C16.3654 40.9136 16.1477 40.2672 15.8375 39.6897C15.7411 39.4954 15.3301 39.4514 15.0791 39.3425C14.9894 39.5868 14.7962 39.8589 14.8306 40.0699C15.0124 40.7479 15.2715 41.3832 15.5168 42.1322ZM14.1636 42.6273C13.9417 42.0481 13.8564 41.5645 13.6014 41.1924C13.4153 40.9119 13.0595 40.7431 12.7809 40.5315C12.6926 40.8635 12.4745 41.2083 12.5158 41.5276C12.6067 42.0317 12.8479 42.5176 13.0642 43.0763C13.4615 42.9037 13.7815 42.7738 14.1636 42.6273Z" fill="#203260"/>
<path d="M14.275 27.9956C14.4403 28.612 14.5671 29.0845 14.7158 29.6393C13.4331 29.9833 12.1917 30.3162 10.9296 30.6547C12.2599 32.3901 15.1135 32.5278 15.8656 35.1671C13.5925 35.6225 11.4698 36.0597 9.32638 36.5024C9.16659 35.9065 9.02333 35.3724 8.84701 34.7149C10.1725 34.4475 11.4304 34.1762 12.9628 33.8534C11.4888 32.9052 10.245 32.0716 8.98057 31.2434C8.03602 30.6158 8.01533 30.6214 7.89579 29.2659C9.98266 28.8604 12.1109 28.4438 14.275 27.9956Z" fill="#203260"/>
<path d="M16.4274 3.76594C17.0046 5.8355 15.7018 8.25508 13.7418 8.80275C12.0245 9.26329 10.1644 8.1985 9.6698 6.43712C9.13398 4.35645 10.4519 1.91078 12.3968 1.3892C14.1554 0.917567 15.948 1.97846 16.4274 3.76594ZM12.4927 3.23546C11.5355 3.47016 10.9173 4.47284 11.1348 5.44959C11.3745 6.50852 12.4859 7.17948 13.5935 6.9265C14.639 6.69015 15.2572 5.68747 15.0079 4.67518C14.7586 3.66289 13.5741 2.96748 12.4927 3.23546Z" fill="#203260"/>
<path d="M14.1939 16.6979C11.9197 16.4048 9.80683 16.1346 7.57951 15.851C7.83115 13.9776 8.07863 12.1713 8.31508 10.324C8.81985 10.3869 9.23084 10.4308 9.7094 10.4787C9.5421 11.7568 9.39413 12.9417 9.23649 14.1733C9.62679 14.2228 9.92882 14.2739 10.2984 14.329C10.4629 13.2057 10.6178 12.1291 10.7864 10.9386C11.2443 10.992 11.6291 11.021 12.1752 11.0727C12.0424 12.2315 11.9138 13.3231 11.7603 14.4875C12.1561 14.5575 12.4995 14.5976 12.9891 14.6865C13.1675 13.4494 13.3568 12.2534 13.549 10.9025C14.0013 10.9354 14.4385 10.9943 14.9585 11.031C14.6972 12.9511 14.4497 14.7573 14.1939 16.6979Z" fill="#203260"/>
</svg>
