<svg width="35" height="35" viewBox="0 0 35 35" fill="none" xmlns="http://www.w3.org/2000/svg">
<path d="M23.25 1L23.1667 0.916667L23.0833 1C21.3333 0.333333 19.5 0 17.5 0C7.83333 0 0 7.83333 0 17.5C0 27.1667 7.83333 35 17.5 35C21.8333 35 25.8333 33.4167 28.8333 30.75H28.9167V30.6667C32.6667 27.5 35 22.75 35 17.5C35 9.91667 30.0833 3.41667 23.25 1ZM1.66667 17.5C1.66667 11.75 4.83333 6.66667 9.41667 3.91667C8 6.33333 7.16667 9.58333 7.16667 13.3333C7.16667 15.25 7.5 17.0833 8.08333 18.8333C8.16667 19.1667 8.58333 19.4167 8.91667 19.3333C9.33333 19.25 9.66667 18.75 9.5 18.3333C9 16.75 8.66667 15 8.66667 13.3333C8.66667 8.5 10.0833 4.5 12.5833 2.41667C14.1667 1.91667 15.75 1.66667 17.5 1.66667C18.8333 1.66667 20.0833 1.83333 21.3333 2.16667C19.9167 3.25 18.75 4.66667 17.8333 6.16667C15.9167 9.58333 15.4167 13.5833 16.5833 17.3333C14.1667 19.8333 10.9167 21.25 7.41667 21.25C5.5 21.25 3.58333 20.8333 1.83333 19.9167C1.75 19.1667 1.66667 18.3333 1.66667 17.5ZM17.5 33.3333C14.75 33.3333 12.0833 32.5833 9.83333 31.3333C10 31.3333 10.1667 31.3333 10.3333 31.3333C13.1667 31.3333 16.3333 30.4167 19.4167 28.5833C21.0833 27.6667 22.5 26.4167 23.75 25.0833C24 24.8333 24 24.4167 23.75 24.0833C23.4167 23.75 22.9167 23.75 22.5833 24.0833C21.4167 25.3333 20.1667 26.4167 18.6667 27.25C15.75 28.9167 12.9167 29.8333 10.3333 29.8333C9 29.8333 7.83333 29.5833 6.75 29.0833C4.58333 27.1667 3 24.5833 2.25 21.75C3.91667 22.4167 5.66667 22.75 7.41667 22.75C11.3333 22.75 15 21.0833 17.6667 18.25C21 19.0833 23.9167 21.1667 25.6667 24.1667C26.6667 25.8333 27.25 27.75 27.3333 29.75C24.6667 32 21.25 33.3333 17.5 33.3333ZM33.3333 18.1667C32.0833 15.3333 29.5 12.5833 25.8333 10.5C24.1667 9.58333 22.4167 8.91667 20.5833 8.5C20.25 8.41667 19.8333 8.66667 19.75 9C19.5833 9.41667 19.8333 9.91667 20.3333 10C22 10.3333 23.5833 10.9167 25.0833 11.8333C29.8333 14.5833 32.6667 18.3333 32.6667 21.9167V22.25C31.9167 24.6667 30.5833 26.8333 28.8333 28.5833C28.5833 26.8333 28 25.0833 27.0833 23.5C25.1667 20.0833 21.8333 17.75 18.0833 16.8333C17.0833 13.5 17.5 9.91667 19.25 6.91667C20.25 5.25 21.5833 3.75 23.25 2.75C29.0833 5 33.3333 10.75 33.3333 17.5C33.3333 17.75 33.3333 18 33.3333 18.1667Z" fill="#203260"/>
</svg>
